<svg width="1000" height="573" viewBox="0 0 1000 573" fill="none" xmlns="http://www.w3.org/2000/svg">
<g clip-path="url(#clip0_2_4)">
<g clip-path="url(#clip1_2_4)">
<g clip-path="url(#clip2_2_4)">
<g opacity="0.08" filter="url(#filter0_f_2_4)">
<path d="M363.166 161.987C284.383 117.064 180.672 153.631 160.255 160.681C159.216 161.879 118.693 165.391 155.186 237.775C191.68 310.161 359.547 310.429 412.249 296.793C464.95 283.157 546.222 278.668 604.92 351.736C783.117 573.562 888.545 275.126 853.644 236.889C818.743 198.652 553.838 229.091 517.183 229.214C480.527 229.338 441.949 206.909 363.166 161.987Z" fill="url(#paint0_linear_2_4)"/>
</g>
</g>
</g>
</g>
<defs>
<filter id="filter0_f_2_4" x="0.577988" y="0.564194" width="999.115" height="571.846" filterUnits="userSpaceOnUse" color-interpolation-filters="sRGB">
<feFlood flood-opacity="0" result="BackgroundImageFix"/>
<feBlend mode="normal" in="SourceGraphic" in2="BackgroundImageFix" result="shape"/>
<feGaussianBlur stdDeviation="69.7013" result="effect1_foregroundBlur_2_4"/>
</filter>
<linearGradient id="paint0_linear_2_4" x1="145.805" y1="170.34" x2="661.232" y2="394.857" gradientUnits="userSpaceOnUse">
<stop stop-color="#00E3F2"/>
<stop offset="0.336" stop-color="#FF9B00"/>
<stop offset="0.64" stop-color="#FF2828"/>
<stop offset="1" stop-color="#C000FF"/>
</linearGradient>
<clipPath id="clip0_2_4">
<rect width="1000" height="572.48" fill="white"/>
</clipPath>
<clipPath id="clip1_2_4">
<rect width="1000" height="572.48" fill="white"/>
</clipPath>
<clipPath id="clip2_2_4">
<rect width="999.981" height="572.48" fill="white" transform="translate(0.00939941)"/>
</clipPath>
</defs>
</svg>
