<svg width="64" height="64" viewBox="0 0 64 64" fill="none" xmlns="http://www.w3.org/2000/svg">
<g filter="url(#filter0_d_2_542)">
<rect x="8" y="4" width="48" height="48" rx="24" fill="#635CFF" shape-rendering="crispEdges"/>
<g clip-path="url(#clip0_2_542)">
<g clip-path="url(#clip1_2_542)">
<mask id="mask0_2_542" style="mask-type:luminance" maskUnits="userSpaceOnUse" x="15" y="17" width="21" height="22">
<path d="M35.9698 17.7224H15.0708V38.6214H35.9698V17.7224Z" fill="white"/>
</mask>
<g mask="url(#mask0_2_542)">
<path d="M25.5203 30.1311C24.766 30.1318 24.0232 29.9454 23.3584 29.5889C22.6936 29.2323 22.1276 28.7165 21.7108 28.0877L22.7989 27.3646C23.0968 27.8136 23.5012 28.182 23.9761 28.4367C24.4509 28.6915 24.9814 28.825 25.5203 28.825C26.0591 28.825 26.5898 28.6915 27.0645 28.4367C27.5394 28.182 27.9438 27.8136 28.2417 27.3646L29.3298 28.0877C28.9131 28.7165 28.347 29.2323 27.6822 29.5889C27.0174 29.9454 26.2747 30.1318 25.5203 30.1311Z" fill="white"/>
<path d="M28.1326 22.9471C27.8743 22.9471 27.6218 23.0237 27.407 23.1673C27.1922 23.3108 27.0247 23.5149 26.9259 23.7535C26.827 23.9921 26.8012 24.2548 26.8516 24.5081C26.902 24.7615 27.0263 24.9943 27.2091 25.177C27.3917 25.3597 27.6245 25.4841 27.8778 25.5345C28.1312 25.5849 28.3938 25.559 28.6325 25.4602C28.8712 25.3612 29.0752 25.1939 29.2187 24.9791C29.3622 24.7643 29.4388 24.5117 29.4388 24.2534C29.4405 24.0814 29.4079 23.9107 29.3429 23.7515C29.2778 23.5923 29.1817 23.4475 29.06 23.326C28.9384 23.2044 28.7937 23.1082 28.6345 23.0431C28.4753 22.9781 28.3047 22.9455 28.1326 22.9471Z" fill="white"/>
<path d="M22.9079 22.9471C22.6496 22.9471 22.3971 23.0237 22.1823 23.1673C21.9675 23.3108 21.8 23.5149 21.7012 23.7535C21.6023 23.9921 21.5765 24.2548 21.6269 24.5081C21.6773 24.7615 21.8016 24.9943 21.9844 25.177C22.167 25.3597 22.3997 25.4841 22.6531 25.5345C22.9065 25.5849 23.1691 25.559 23.4078 25.4602C23.6465 25.3612 23.8505 25.1939 23.9939 24.9791C24.1375 24.7643 24.2141 24.5117 24.2141 24.2534C24.2158 24.0814 24.1832 23.9107 24.1182 23.7515C24.0531 23.5923 23.957 23.4475 23.8353 23.326C23.7137 23.2044 23.569 23.1082 23.4098 23.0431C23.2506 22.9781 23.08 22.9455 22.9079 22.9471Z" fill="white"/>
<path d="M26.6539 37.3151L25.5202 36.662L28.1326 32.0904H32.0512C32.2228 32.0906 32.3927 32.0571 32.5514 31.9915C32.71 31.926 32.8541 31.8297 32.9755 31.7084C33.0968 31.587 33.193 31.4429 33.2586 31.2844C33.324 31.1258 33.3576 30.9558 33.3573 30.7841V21.6409C33.3576 21.4693 33.324 21.2993 33.2586 21.1407C33.193 20.9821 33.0968 20.838 32.9755 20.7167C32.8541 20.5952 32.71 20.499 32.5514 20.4336C32.3927 20.368 32.2228 20.3344 32.0512 20.3347H18.9894C18.8177 20.3344 18.6478 20.368 18.4892 20.4336C18.3306 20.499 18.1864 20.5952 18.0651 20.7167C17.9437 20.838 17.8475 20.9821 17.782 21.1407C17.7165 21.2993 17.6829 21.4693 17.6832 21.6409V30.7841C17.6829 30.9558 17.7165 31.1258 17.782 31.2844C17.8475 31.4429 17.9437 31.587 18.0651 31.7084C18.1864 31.8297 18.3306 31.926 18.4892 31.9915C18.6478 32.0571 18.8177 32.0906 18.9894 32.0904H24.8672V33.3965H18.9894C18.6463 33.3966 18.3066 33.3291 17.9896 33.1977C17.6726 33.0665 17.3846 32.8741 17.142 32.6316C16.8994 32.3889 16.707 32.1009 16.5757 31.7839C16.4445 31.4669 16.3769 31.1272 16.377 30.7841V21.6409C16.3769 21.2978 16.4444 20.9581 16.5756 20.6411C16.7069 20.324 16.8993 20.036 17.1419 19.7934C17.3845 19.5508 17.6725 19.3584 17.9895 19.2271C18.3065 19.0959 18.6463 19.0284 18.9894 19.0285H32.0512C32.3943 19.0284 32.734 19.0959 33.051 19.2271C33.368 19.3584 33.656 19.5508 33.8986 19.7934C34.1412 20.036 34.3337 20.324 34.4649 20.6411C34.5962 20.9581 34.6637 21.2978 34.6636 21.6409V30.7841C34.6636 31.1272 34.596 31.4669 34.4648 31.7839C34.3336 32.1009 34.1411 32.3889 33.8985 32.6316C33.6559 32.8741 33.3679 33.0665 33.051 33.1977C32.734 33.3291 32.3943 33.3966 32.0512 33.3965H28.8932L26.6539 37.3151Z" fill="white"/>
</g>
<mask id="mask1_2_542" style="mask-type:luminance" maskUnits="userSpaceOnUse" x="12" y="7" width="40" height="42">
<path d="M51.9138 7.27274H12.0863V48.7273H51.9138V7.27274Z" fill="white"/>
</mask>
<g mask="url(#mask1_2_542)">
<path d="M51.7347 27.8432C50.7196 37.7851 45.465 48.6377 36.3589 48.7422C27.253 48.8467 18.3112 41.3827 14.4151 34.5011C10.5189 27.6193 12.0266 21.4691 14.5046 18.3791C16.9827 15.289 22.1477 9.42231 34.6721 7.46677C39.255 6.7801 44.7932 7.82504 47.928 11.4525C51.4957 15.5427 52.3168 22.5737 51.7347 27.8432Z" fill="#635CFF"/>
<path d="M40.2035 21.2822L25.634 21.2364C24.6117 21.2332 23.7803 22.0594 23.7772 23.0817L23.7412 34.5461C23.7379 35.5684 24.564 36.3998 25.5863 36.403L40.1559 36.4488C41.1781 36.452 42.0094 35.6258 42.0127 34.6035L42.0487 23.1391C42.052 22.1168 41.2258 21.2854 40.2035 21.2822Z" fill="#635CFF"/>
<path d="M32.8659 32.7398C32.0187 32.7387 31.1841 32.5338 30.4326 32.1426C29.6893 31.7368 29.0545 31.1583 28.5816 30.4557L29.8056 29.6347C30.1421 30.1412 30.5985 30.5565 31.1343 30.8439C31.6664 31.1301 32.2616 31.279 32.8659 31.2768C33.4697 31.2753 34.064 31.1267 34.5975 30.8439C35.1333 30.5565 35.5896 30.1412 35.9261 29.6347L37.1502 30.4557C36.687 31.1728 36.057 31.767 35.3141 32.1874C34.5541 32.5654 33.7145 32.7549 32.8659 32.7398Z" fill="white"/>
<path d="M35.8066 24.7236C35.5155 24.7214 35.2301 24.8044 34.9856 24.9624C34.7467 25.1247 34.5599 25.3529 34.4482 25.6192C34.3295 25.8864 34.2981 26.1841 34.3585 26.4701C34.4152 26.758 34.5554 27.0228 34.7616 27.2315C34.968 27.4297 35.2271 27.5644 35.508 27.6196C35.7929 27.6781 36.0886 27.6521 36.3589 27.5449C36.6252 27.4331 36.8534 27.2464 37.0158 27.0075C37.1735 26.7732 37.2614 26.4988 37.2695 26.2164C37.2719 26.0223 37.2364 25.8296 37.165 25.6491C37.095 25.4373 36.9716 25.247 36.8068 25.0968C36.6835 24.9442 36.5313 24.8173 36.3589 24.7236C36.1767 24.6869 35.9889 24.6869 35.8066 24.7236Z" fill="white"/>
<path d="M29.925 24.7236C29.6389 24.7243 29.3592 24.8072 29.1189 24.9624C28.88 25.1248 28.6933 25.3529 28.5815 25.6192C28.4628 25.8864 28.4315 26.1842 28.492 26.4701C28.5486 26.758 28.6888 27.0228 28.8951 27.2315C29.1015 27.4297 29.3605 27.5644 29.6415 27.6196C29.9263 27.6781 30.222 27.6521 30.4923 27.545C30.7587 27.4332 30.9868 27.2464 31.1491 27.0075C31.3068 26.7732 31.3949 26.4988 31.4028 26.2164C31.3984 26.023 31.3631 25.8314 31.2984 25.6491C31.2212 25.47 31.1096 25.3076 30.97 25.1714C30.8458 24.9887 30.6827 24.8357 30.4923 24.7236C30.3049 24.6874 30.1124 24.6874 29.925 24.7236Z" fill="white"/>
<path d="M34.1347 40.8157L32.8659 40.0842L35.8515 34.949H40.2402C40.4352 34.9467 40.628 34.9061 40.8075 34.8296C40.9854 34.7569 41.1476 34.6504 41.2852 34.5161C41.4195 34.3786 41.5258 34.2163 41.5986 34.0384C41.6751 33.859 41.7156 33.6662 41.718 33.4711V23.2307C41.7138 23.0406 41.6732 22.8532 41.5986 22.6783C41.5293 22.4898 41.4227 22.3171 41.2852 22.1709C41.1476 22.0366 40.9854 21.9301 40.8075 21.8573C40.6141 21.7749 40.4056 21.7342 40.1953 21.7379H25.5363C25.3412 21.7403 25.1485 21.7809 24.969 21.8573C24.7911 21.9301 24.6289 22.0366 24.4914 22.1709C24.3571 22.3084 24.2506 22.4706 24.1779 22.6486C24.1032 22.8233 24.0627 23.0108 24.0584 23.2009V33.4711C24.0608 33.6662 24.1014 33.859 24.1779 34.0384C24.2506 34.2163 24.3571 34.3786 24.4914 34.5161C24.6289 34.6504 24.7911 34.7569 24.969 34.8296C25.1485 34.9061 25.3412 34.9467 25.5363 34.949H32.1344V36.4418H25.5363C25.1471 36.4418 24.7617 36.3658 24.4018 36.2179C24.0484 36.0694 23.7284 35.8511 23.4613 35.576C23.1829 35.3116 22.9641 34.9911 22.8195 34.6356C22.6715 34.2756 22.5955 33.8902 22.5955 33.501V23.2307C22.5975 22.8466 22.6735 22.4664 22.8195 22.1111C22.9693 21.754 23.1874 21.4296 23.4613 21.1558C23.732 20.8888 24.0512 20.676 24.4018 20.5288C24.7576 20.3604 25.1431 20.2639 25.5363 20.2452H40.1953C40.5846 20.2451 40.97 20.3212 41.3299 20.469C41.6817 20.6139 42.0013 20.827 42.2704 21.096C42.5443 21.3698 42.7623 21.6943 42.9123 22.0514C43.0582 22.4067 43.1343 22.7869 43.1362 23.171V33.4414C43.1362 33.8305 43.0601 34.2159 42.9123 34.5758C42.7675 34.9313 42.5487 35.2519 42.2704 35.5163C42.006 35.7947 41.6854 36.0134 41.3299 36.1582C40.97 36.3061 40.5846 36.3821 40.1953 36.3821H36.6575L34.1347 40.8157Z" fill="white"/>
</g>
</g>
</g>
</g>
<defs>
<filter id="filter0_d_2_542" x="0" y="0" width="64" height="64" filterUnits="userSpaceOnUse" color-interpolation-filters="sRGB">
<feFlood flood-opacity="0" result="BackgroundImageFix"/>
<feColorMatrix in="SourceAlpha" type="matrix" values="0 0 0 0 0 0 0 0 0 0 0 0 0 0 0 0 0 0 127 0" result="hardAlpha"/>
<feOffset dy="4"/>
<feGaussianBlur stdDeviation="4"/>
<feComposite in2="hardAlpha" operator="out"/>
<feColorMatrix type="matrix" values="0 0 0 0 0 0 0 0 0 0 0 0 0 0 0 0 0 0 0.2 0"/>
<feBlend mode="normal" in2="BackgroundImageFix" result="effect1_dropShadow_2_542"/>
<feBlend mode="normal" in="SourceGraphic" in2="effect1_dropShadow_2_542" result="shape"/>
</filter>
<clipPath id="clip0_2_542">
<rect x="8" y="4" width="48" height="48" rx="24" fill="white"/>
</clipPath>
<clipPath id="clip1_2_542">
<rect width="48" height="48" fill="white" transform="translate(8 4)"/>
</clipPath>
</defs>
</svg>
