<svg width="1296" height="516" viewBox="0 0 1296 516" fill="none" xmlns="http://www.w3.org/2000/svg">
<g clip-path="url(#clip0_2_345)">
<g clip-path="url(#clip1_2_345)">
<path d="M1 450.834H1295V464.109H1V450.834ZM1 474.067H1295V488.449H1V474.067ZM1 499.511H1295V514.999H1V499.511ZM1 429.814H1295V441.984H1V429.814ZM1 409.9H1295V420.963H1V409.9ZM1 391.094H1295V401.05H1V391.094ZM1 373.393H1295V382.243H1V373.393ZM1 356.798H1295V364.542H1V356.798ZM1 341.31H1295V347.948H1V341.31ZM1 326.928H1295V332.459H1V326.928ZM1 313.653H1295V318.078H1V313.653ZM1 301.482H1295V304.801H1V301.482ZM1 290.418H1295V292.631H1V290.418ZM1 280.462H1295V281.569H1V280.462Z" fill="#F3F8FF"/>
</g>
</g>
<rect x="0.5" y="0.5" width="1295" height="515" rx="19.5" stroke="#6A4DFF"/>
<defs>
<clipPath id="clip0_2_345">
<rect width="1296" height="516" rx="20" fill="white"/>
</clipPath>
<clipPath id="clip1_2_345">
<rect width="1294" height="234.538" fill="white" transform="translate(1 280.462)"/>
</clipPath>
</defs>
</svg>
