<svg width="527" height="566" viewBox="0 0 527 566" fill="none" xmlns="http://www.w3.org/2000/svg">
<g clip-path="url(#clip0_2_109)">
<g clip-path="url(#clip1_2_109)">
<path d="M219.347 463.944C98.2074 463.944 0.00500488 368.512 0.00500488 250.791C0.00500488 133.07 98.2074 37.6376 219.347 37.6376C340.486 37.6376 438.688 133.07 438.688 250.791C438.688 368.512 340.486 463.944 219.347 463.944Z" fill="url(#paint0_linear_2_109)"/>
<g opacity="0.35" filter="url(#filter0_f_2_109)">
<path d="M241.642 139.563C255.626 62.1959 348.27 99.6131 366.392 106.763C367.965 108.348 395.805 107.287 429.333 218.176C462.862 329.066 359.026 355.021 315.786 343.204C272.545 331.387 280.226 381.421 238.987 452.496C197.747 523.571 122.023 407.508 113.995 346.551C105.966 285.595 199.51 313.816 222.324 308.415C245.139 303.012 227.657 216.931 241.642 139.563Z" fill="url(#paint1_linear_2_109)"/>
</g>
<path d="M56.855 89.5244H343.812C345.607 89.5244 347.328 90.2375 348.598 91.5067C349.867 92.7759 350.58 94.4973 350.58 96.2923V435.587C350.58 437.382 349.867 439.104 348.598 440.373C347.328 441.642 345.607 442.355 343.812 442.355H56.855C55.0601 442.355 53.3386 441.642 52.0694 440.373C50.8002 439.104 50.0872 437.382 50.0872 435.587V96.2923C50.0872 94.4973 50.8002 92.7759 52.0694 91.5067C53.3386 90.2375 55.0601 89.5244 56.855 89.5244Z" fill="url(#paint2_linear_2_109)" stroke="#6A4DFF" stroke-width="0.90238"/>
<g filter="url(#filter1_d_2_109)">
<path d="M152.267 153.667H76.2805C74.6454 153.667 73.3198 154.992 73.3198 156.627C73.3198 158.262 74.6454 159.588 76.2805 159.588H152.267C153.902 159.588 155.228 158.262 155.228 156.627C155.228 154.992 153.902 153.667 152.267 153.667Z" fill="url(#paint3_linear_2_109)"/>
<path d="M152.267 154.118H76.2805C74.8945 154.118 73.771 155.241 73.771 156.627C73.771 158.013 74.8945 159.137 76.2805 159.137H152.267C153.653 159.137 154.777 158.013 154.777 156.627C154.777 155.241 153.653 154.118 152.267 154.118Z" stroke="white" stroke-width="0.90238"/>
</g>
<path d="M284.503 189.192H76.2805C74.6454 189.192 73.3198 190.518 73.3198 192.153C73.3198 193.788 74.6454 195.114 76.2805 195.114H284.503C286.138 195.114 287.464 193.788 287.464 192.153C287.464 190.518 286.138 189.192 284.503 189.192Z" fill="#D7E4F9"/>
<path d="M236.148 203.995H76.2805C74.6454 203.995 73.3198 205.321 73.3198 206.956C73.3198 208.591 74.6454 209.917 76.2805 209.917H236.148C237.783 209.917 239.109 208.591 239.109 206.956C239.109 205.321 237.783 203.995 236.148 203.995Z" fill="#D7E4F9"/>
<path d="M261.806 172.416H77.2668C75.087 172.416 73.3198 174.183 73.3198 176.363V176.364C73.3198 178.544 75.087 180.311 77.2668 180.311H261.806C263.986 180.311 265.753 178.544 265.753 176.364V176.363C265.753 174.183 263.986 172.416 261.806 172.416Z" fill="#D7E4F9"/>
<g filter="url(#filter2_d_2_109)">
<path d="M161.148 233.6H76.2805C74.6454 233.6 73.3198 234.926 73.3198 236.561C73.3198 238.196 74.6454 239.522 76.2805 239.522H161.148C162.784 239.522 164.109 238.196 164.109 236.561C164.109 234.926 162.784 233.6 161.148 233.6Z" fill="url(#paint4_linear_2_109)"/>
<path d="M161.148 234.052H76.2805C74.8945 234.052 73.771 235.175 73.771 236.561C73.771 237.947 74.8945 239.071 76.2805 239.071H161.148C162.534 239.071 163.658 237.947 163.658 236.561C163.658 235.175 162.534 234.052 161.148 234.052Z" stroke="white" stroke-width="0.90238"/>
</g>
<path d="M334.339 269.126H76.7741C74.8664 269.126 73.3198 270.672 73.3198 272.58C73.3198 274.487 74.8664 276.034 76.7741 276.034H334.339C336.246 276.034 337.793 274.487 337.793 272.58C337.793 270.672 336.246 269.126 334.339 269.126Z" fill="#D7E4F9"/>
<path d="M306.213 285.903H76.2805C74.6454 285.903 73.3198 287.229 73.3198 288.864C73.3198 290.499 74.6454 291.825 76.2805 291.825H306.213C307.848 291.825 309.174 290.499 309.174 288.864C309.174 287.229 307.848 285.903 306.213 285.903Z" fill="#D7E4F9"/>
<path d="M289.438 252.35H77.2668C75.087 252.35 73.3198 254.117 73.3198 256.297V256.298C73.3198 258.478 75.087 260.245 77.2668 260.245H289.438C291.618 260.245 293.385 258.478 293.385 256.298V256.297C293.385 254.117 291.618 252.35 289.438 252.35Z" fill="#D7E4F9"/>
<g filter="url(#filter3_d_2_109)">
<path d="M161.148 315.509H76.2805C74.6454 315.509 73.3198 316.835 73.3198 318.47C73.3198 320.105 74.6454 321.431 76.2805 321.431H161.148C162.784 321.431 164.109 320.105 164.109 318.47C164.109 316.835 162.784 315.509 161.148 315.509Z" fill="url(#paint5_linear_2_109)"/>
<path d="M161.148 315.96H76.2805C74.8945 315.96 73.771 317.084 73.771 318.47C73.771 319.856 74.8945 320.979 76.2805 320.979H161.148C162.534 320.979 163.658 319.856 163.658 318.47C163.658 317.084 162.534 315.96 161.148 315.96Z" stroke="white" stroke-width="0.90238"/>
</g>
<path d="M307.694 351.035H76.7741C74.8664 351.035 73.3198 352.582 73.3198 354.489C73.3198 356.397 74.8664 357.943 76.7741 357.943H307.694C309.602 357.943 311.148 356.397 311.148 354.489C311.148 352.582 309.602 351.035 307.694 351.035Z" fill="#D7E4F9"/>
<path d="M307.694 387.548H76.7741C74.8664 387.548 73.3198 389.094 73.3198 391.002C73.3198 392.909 74.8664 394.456 76.7741 394.456H307.694C309.602 394.456 311.148 392.909 311.148 391.002C311.148 389.094 309.602 387.548 307.694 387.548Z" fill="#D7E4F9"/>
<path d="M274.635 334.259H77.2668C75.087 334.259 73.3198 336.026 73.3198 338.206V338.207C73.3198 340.387 75.087 342.154 77.2668 342.154H274.635C276.815 342.154 278.582 340.387 278.582 338.207V338.206C278.582 336.026 276.815 334.259 274.635 334.259Z" fill="#D7E4F9"/>
<path d="M274.635 370.772H77.2668C75.087 370.772 73.3198 372.539 73.3198 374.719V374.72C73.3198 376.9 75.087 378.667 77.2668 378.667H274.635C276.815 378.667 278.582 376.9 278.582 374.72V374.719C278.582 372.539 276.815 370.772 274.635 370.772Z" fill="#D7E4F9"/>
<g style="mix-blend-mode:multiply" opacity="0.18">
<path d="M376.525 142.983L377.537 119.049C377.598 117.585 377.076 116.157 376.085 115.078C375.093 113.999 373.714 113.359 372.25 113.297L75.0767 100.757C73.6131 100.696 72.185 101.219 71.1064 102.21C70.0277 103.201 69.3866 104.58 69.3241 106.043L68.3152 129.978C68.2536 131.442 68.776 132.871 69.7675 133.949C70.7589 135.028 72.1383 135.669 73.6022 135.731L370.775 148.269C372.239 148.331 373.667 147.809 374.746 146.817C375.825 145.826 376.466 144.447 376.528 142.983H376.525Z" fill="#003889"/>
</g>
<path d="M364.058 135.414L66.6187 135.41C65.8933 135.411 65.175 135.268 64.5048 134.99C63.8346 134.713 63.2257 134.306 62.7127 133.793C62.1998 133.28 61.793 132.671 61.5154 132.001C61.2379 131.331 61.0951 130.612 61.0952 129.887V105.93C61.0951 105.204 61.2379 104.486 61.5155 103.816C61.7931 103.145 62.2 102.536 62.7131 102.023C63.2261 101.511 63.8351 101.104 64.5054 100.826C65.1757 100.549 65.8941 100.406 66.6196 100.406L364.059 100.411C364.784 100.411 365.502 100.553 366.172 100.831C366.842 101.108 367.451 101.515 367.964 102.028C368.477 102.541 368.884 103.15 369.162 103.82C369.439 104.49 369.582 105.208 369.582 105.933L369.581 129.892C369.581 130.617 369.438 131.335 369.161 132.005C368.883 132.675 368.476 133.284 367.963 133.797C367.45 134.31 366.841 134.716 366.171 134.994C365.501 135.271 364.783 135.414 364.058 135.414Z" fill="url(#paint6_linear_2_109)"/>
<path d="M86.0188 111.298L86.0179 111.298C83.5885 111.272 81.5979 113.22 81.5718 115.65L81.5718 115.651C81.5457 118.08 83.494 120.071 85.9234 120.097L85.9243 120.097C88.3537 120.123 90.3443 118.175 90.3704 115.745L90.3704 115.744C90.3965 113.315 88.4482 111.324 86.0188 111.298Z" fill="#F16C7A"/>
<path d="M100.395 111.373L100.395 111.373C97.9652 111.347 95.9746 113.295 95.9485 115.725L95.9485 115.726C95.9224 118.155 97.8707 120.146 100.3 120.172L100.301 120.172C102.73 120.198 104.721 118.25 104.747 115.82L104.747 115.819C104.773 113.39 102.825 111.399 100.395 111.373Z" fill="#49C3E8"/>
<path d="M114.765 111.533L114.764 111.533C112.335 111.507 110.344 113.455 110.318 115.884L110.318 115.885C110.292 118.315 112.24 120.305 114.67 120.331L114.671 120.331C117.1 120.358 119.091 118.409 119.117 115.98L119.117 115.979C119.143 113.549 117.194 111.559 114.765 111.533Z" fill="#FFD160"/>
<g filter="url(#filter4_d_2_109)">
<path d="M468.34 180.311H177.169C171.189 180.311 166.341 185.159 166.341 191.14V353.035C166.341 359.015 171.189 363.863 177.169 363.863H468.34C474.321 363.863 479.169 359.015 479.169 353.035V191.14C479.169 185.159 474.321 180.311 468.34 180.311Z" fill="white"/>
<path d="M468.34 180.762H177.169C171.438 180.762 166.792 185.408 166.792 191.14V353.035C166.792 358.766 171.438 363.412 177.169 363.412H468.34C474.072 363.412 478.718 358.766 478.718 353.035V191.14C478.718 185.408 474.072 180.762 468.34 180.762Z" stroke="#3442F4" stroke-width="0.90238"/>
</g>
<path d="M186.404 217.082V211.711H183.286V208.593H186.404V205.358H183.286V202.24H186.404V196.869H189.696V202.24H192.93V196.869H196.222V202.24H199.341V205.358H196.222V208.593H199.341V211.711H196.222V217.082H192.93V211.711H189.696V217.082H186.404ZM189.696 208.593H192.93V205.358H189.696V208.593ZM209.844 217.486C207.457 217.486 205.541 216.832 204.097 215.523C202.653 214.195 201.932 212.193 201.932 209.517V204.434C201.932 201.836 202.653 199.863 204.097 198.515C205.541 197.149 207.457 196.465 209.844 196.465C212.25 196.465 214.166 197.149 215.59 198.515C217.034 199.863 217.756 201.836 217.756 204.434V209.517C217.756 212.193 217.034 214.195 215.59 215.523C214.166 216.832 212.25 217.486 209.844 217.486ZM209.844 214.195C211.287 214.195 212.347 213.8 213.02 213.011C213.713 212.222 214.06 211.096 214.06 209.632V204.261C214.06 202.779 213.675 201.662 212.904 200.912C212.154 200.142 211.134 199.756 209.844 199.756C208.515 199.756 207.476 200.152 206.725 200.94C205.994 201.73 205.628 202.837 205.628 204.261V209.632C205.628 211.154 205.974 212.299 206.667 213.068C207.38 213.819 208.439 214.195 209.844 214.195ZM226.662 217.082V199.583H226.142L223.428 205.994H219.559L223.688 196.869H230.358V217.082H226.662Z" fill="#9CAACF"/>
<path d="M212.503 289.344H189.038V342.153H212.503V289.344Z" fill="url(#paint7_linear_2_109)"/>
<path d="M260.902 257.929H237.438V342.153H260.902V257.929Z" fill="#D3DFFF"/>
<path d="M309.299 239.433H285.834V342.153H309.299V239.433Z" fill="url(#paint8_linear_2_109)"/>
<path d="M357.699 284.13H334.234V342.153H357.699V284.13Z" fill="#D3DFFF"/>
<path d="M406.099 250.612H382.634V342.153H406.099V250.612Z" fill="url(#paint9_linear_2_109)"/>
<path d="M454.498 215.838H431.033V342.153H454.498V215.838Z" fill="#D3DFFF"/>
<g filter="url(#filter5_d_2_109)">
<path d="M442.171 176.604C442.171 156.669 426.011 140.509 406.076 140.509C386.141 140.509 369.981 156.669 369.981 176.604C369.981 196.539 386.141 212.699 406.076 212.699C426.011 212.699 442.171 196.539 442.171 176.604Z" fill="url(#paint10_linear_2_109)"/>
<path d="M441.72 176.604C441.72 156.919 425.762 140.96 406.076 140.96C386.39 140.96 370.432 156.919 370.432 176.604C370.432 196.29 386.39 212.248 406.076 212.248C425.762 212.248 441.72 196.29 441.72 176.604Z" stroke="white" stroke-width="0.90238"/>
</g>
<mask id="mask0_2_109" style="mask-type:luminance" maskUnits="userSpaceOnUse" x="388" y="158" width="37" height="37">
<path d="M388.028 158.557H424.124V194.652H388.028V158.557Z" fill="white"/>
</mask>
<g mask="url(#mask0_2_109)">
<path d="M405.324 190.14H397.052C396.255 190.14 395.49 189.823 394.926 189.259C394.362 188.695 394.045 187.93 394.045 187.132V166.076C394.045 165.279 394.362 164.514 394.926 163.95C395.49 163.385 396.255 163.069 397.052 163.069H415.1C415.495 163.069 415.886 163.146 416.251 163.298C416.616 163.449 416.947 163.67 417.227 163.95C417.506 164.229 417.727 164.56 417.879 164.925C418.03 165.29 418.108 165.681 418.108 166.076V175.1M401.564 185.628H404.572" stroke="white" stroke-width="2.70714" stroke-linecap="round" stroke-linejoin="round"/>
<path d="M410.588 185.628C410.588 186.825 411.064 187.973 411.909 188.819C412.756 189.665 413.903 190.139 415.1 190.139C416.296 190.139 417.444 189.665 418.291 188.819C419.136 187.972 419.611 186.825 419.611 185.628C419.611 184.432 419.136 183.284 418.291 182.437C417.444 181.592 416.296 181.117 415.1 181.117C413.903 181.117 412.756 181.592 411.909 182.437C411.063 183.284 410.588 184.432 410.588 185.628Z" stroke="white" stroke-width="2.70714" stroke-linecap="round" stroke-linejoin="round"/>
</g>
<path d="M339.654 448.752C349.697 450.802 361.184 447.429 369.568 441.847C377.595 436.5 386.235 426.649 383.42 416.17C382.396 412.351 379.109 409.176 375.037 411.037C371.252 412.763 370.157 417.178 372.013 420.76C377.027 430.438 391.457 425.852 398.318 421.118C402.68 418.107 406.271 414.111 408.801 409.454C411.135 405.144 413.108 399.624 412.385 394.664C412.28 393.95 411.089 393.966 410.967 394.664C410.332 398.389 410.018 401.976 408.579 405.522C407.087 409.201 404.846 412.583 402.111 415.443C396.683 421.122 387.76 426.028 379.673 424.31C375.388 423.399 370.073 417.993 374.137 413.729C375.785 412.003 378.428 411.545 380.175 413.385C381.769 415.065 382.245 417.749 382.266 419.975C382.354 429.044 374.853 436.764 367.736 441.309C363.704 443.878 359.274 445.762 354.627 446.883C349.664 448.084 344.826 448.064 339.771 447.874C339.277 447.853 339.156 448.651 339.654 448.752Z" fill="#6A4DFF"/>
<path d="M336.89 448.298C347.206 453.137 359.456 450.995 368.485 444.354C372.829 441.158 376.479 437.104 379.44 432.597C382.459 427.997 385.507 422.441 385.837 416.829C386.071 412.914 384.035 406.571 378.979 407.419C374.531 408.163 370.592 413.447 370.625 417.854C370.663 422.784 375.208 426.145 379.711 426.75C385.089 427.472 390.775 425.221 395.371 422.588C405.431 416.82 412.774 406.487 414.668 394.99C414.848 393.895 413.188 393.415 412.991 394.528C411.54 402.858 407.347 410.457 401.141 416.169C397.98 419.08 394.3 421.466 390.328 423.1C385.779 424.969 380.021 426.452 375.597 423.503C370.713 420.248 371.871 414.316 375.864 410.859C378.193 408.843 381.087 408.087 383.023 411.09C384.595 413.527 384.457 416.783 383.805 419.496C381.71 428.187 375.488 436.835 368.564 442.321C359.883 449.197 347.808 451.974 337.467 447.311C336.802 447.004 336.221 447.983 336.89 448.298Z" fill="#6A4DFF"/>
<path d="M405.36 402.245C407.163 400.791 408.768 399.053 410.432 397.444C411.218 396.684 412.008 395.923 412.794 395.159C413.158 394.806 414.847 392.74 415.341 392.857C415.596 392.915 416.111 395.646 416.206 395.999L417.072 399.141C417.636 401.182 417.921 403.782 419.151 405.53C419.589 406.155 420.521 405.924 420.572 405.144C420.668 403.694 420.095 402.334 419.702 400.947C419.259 399.38 418.811 397.814 418.368 396.247C417.954 394.798 417.695 391.232 415.872 390.732C414.132 390.253 412.335 393.214 411.314 394.247C409.023 396.566 406.51 398.793 404.44 401.309C404.325 401.432 404.261 401.596 404.264 401.765C404.266 401.934 404.333 402.096 404.452 402.217C404.57 402.337 404.731 402.408 404.9 402.413C405.069 402.418 405.234 402.358 405.36 402.245Z" fill="#6A4DFF"/>
<path d="M405.908 402.548C407.509 400.641 408.626 398.255 409.997 396.171C411.591 393.756 413.267 391.37 415.191 389.207L413.531 388.765C414.311 391.355 414.967 393.981 415.496 396.633C416.006 399.212 415.935 402.152 416.825 404.609C417.085 405.324 418.335 405.533 418.486 404.609C418.887 402.149 418.126 399.254 417.666 396.831C417.104 393.923 416.363 391.053 415.445 388.237C415.169 387.384 414.12 387.295 413.631 387.998C412.005 390.337 410.315 392.618 408.793 395.033C407.426 397.205 405.774 399.57 405.055 402.048C404.926 402.518 405.573 402.946 405.908 402.548Z" fill="#6A4DFF"/>
<path d="M405.636 404.682C409.069 399.233 412.473 393.765 415.964 388.354L414.15 388.115C415.282 390.925 416.39 393.739 417.319 396.625C418.172 399.284 418.581 402.279 419.815 404.778C420.204 405.568 421.425 405.164 421.421 404.341C421.413 401.456 420.141 398.393 419.234 395.689C418.284 392.857 417.219 390.06 415.968 387.351C415.647 386.653 414.601 386.745 414.254 387.351C411.038 392.928 407.736 398.452 404.457 403.992C404.002 404.753 405.167 405.429 405.636 404.682Z" fill="#6A4DFF"/>
</g>
</g>
<defs>
<filter id="filter0_f_2_109" x="23.2694" y="1.20779" width="502.858" height="563.844" filterUnits="userSpaceOnUse" color-interpolation-filters="sRGB">
<feFlood flood-opacity="0" result="BackgroundImageFix"/>
<feBlend mode="normal" in="SourceGraphic" in2="BackgroundImageFix" result="shape"/>
<feGaussianBlur stdDeviation="45.119" result="effect1_foregroundBlur_2_109"/>
</filter>
<filter id="filter1_d_2_109" x="28.2008" y="124.79" width="172.146" height="96.1594" filterUnits="userSpaceOnUse" color-interpolation-filters="sRGB">
<feFlood flood-opacity="0" result="BackgroundImageFix"/>
<feColorMatrix in="SourceAlpha" type="matrix" values="0 0 0 0 0 0 0 0 0 0 0 0 0 0 0 0 0 0 127 0" result="hardAlpha"/>
<feOffset dy="16.2428"/>
<feGaussianBlur stdDeviation="22.5595"/>
<feComposite in2="hardAlpha" operator="out"/>
<feColorMatrix type="matrix" values="0 0 0 0 0.0666667 0 0 0 0 0.0705882 0 0 0 0 0.109804 0 0 0 0.3 0"/>
<feBlend mode="normal" in2="BackgroundImageFix" result="effect1_dropShadow_2_109"/>
<feBlend mode="normal" in="SourceGraphic" in2="effect1_dropShadow_2_109" result="shape"/>
</filter>
<filter id="filter2_d_2_109" x="28.2008" y="204.724" width="181.027" height="96.1594" filterUnits="userSpaceOnUse" color-interpolation-filters="sRGB">
<feFlood flood-opacity="0" result="BackgroundImageFix"/>
<feColorMatrix in="SourceAlpha" type="matrix" values="0 0 0 0 0 0 0 0 0 0 0 0 0 0 0 0 0 0 127 0" result="hardAlpha"/>
<feOffset dy="16.2428"/>
<feGaussianBlur stdDeviation="22.5595"/>
<feComposite in2="hardAlpha" operator="out"/>
<feColorMatrix type="matrix" values="0 0 0 0 0.0666667 0 0 0 0 0.0705882 0 0 0 0 0.109804 0 0 0 0.3 0"/>
<feBlend mode="normal" in2="BackgroundImageFix" result="effect1_dropShadow_2_109"/>
<feBlend mode="normal" in="SourceGraphic" in2="effect1_dropShadow_2_109" result="shape"/>
</filter>
<filter id="filter3_d_2_109" x="28.2008" y="286.633" width="181.027" height="96.1594" filterUnits="userSpaceOnUse" color-interpolation-filters="sRGB">
<feFlood flood-opacity="0" result="BackgroundImageFix"/>
<feColorMatrix in="SourceAlpha" type="matrix" values="0 0 0 0 0 0 0 0 0 0 0 0 0 0 0 0 0 0 127 0" result="hardAlpha"/>
<feOffset dy="16.2428"/>
<feGaussianBlur stdDeviation="22.5595"/>
<feComposite in2="hardAlpha" operator="out"/>
<feColorMatrix type="matrix" values="0 0 0 0 0.0666667 0 0 0 0 0.0705882 0 0 0 0 0.109804 0 0 0 0.3 0"/>
<feBlend mode="normal" in2="BackgroundImageFix" result="effect1_dropShadow_2_109"/>
<feBlend mode="normal" in="SourceGraphic" in2="effect1_dropShadow_2_109" result="shape"/>
</filter>
<filter id="filter4_d_2_109" x="155.512" y="180.311" width="323.657" height="194.381" filterUnits="userSpaceOnUse" color-interpolation-filters="sRGB">
<feFlood flood-opacity="0" result="BackgroundImageFix"/>
<feColorMatrix in="SourceAlpha" type="matrix" values="0 0 0 0 0 0 0 0 0 0 0 0 0 0 0 0 0 0 127 0" result="hardAlpha"/>
<feOffset dx="-10.8286" dy="10.8286"/>
<feComposite in2="hardAlpha" operator="out"/>
<feColorMatrix type="matrix" values="0 0 0 0 0.227451 0 0 0 0 0.494118 0 0 0 0 0.756863 0 0 0 0.16 0"/>
<feBlend mode="normal" in2="BackgroundImageFix" result="effect1_dropShadow_2_109"/>
<feBlend mode="normal" in="SourceGraphic" in2="effect1_dropShadow_2_109" result="shape"/>
</filter>
<filter id="filter5_d_2_109" x="324.862" y="111.633" width="162.428" height="162.428" filterUnits="userSpaceOnUse" color-interpolation-filters="sRGB">
<feFlood flood-opacity="0" result="BackgroundImageFix"/>
<feColorMatrix in="SourceAlpha" type="matrix" values="0 0 0 0 0 0 0 0 0 0 0 0 0 0 0 0 0 0 127 0" result="hardAlpha"/>
<feOffset dy="16.2428"/>
<feGaussianBlur stdDeviation="22.5595"/>
<feComposite in2="hardAlpha" operator="out"/>
<feColorMatrix type="matrix" values="0 0 0 0 0.0666667 0 0 0 0 0.0705882 0 0 0 0 0.109804 0 0 0 0.3 0"/>
<feBlend mode="normal" in2="BackgroundImageFix" result="effect1_dropShadow_2_109"/>
<feBlend mode="normal" in="SourceGraphic" in2="effect1_dropShadow_2_109" result="shape"/>
</filter>
<linearGradient id="paint0_linear_2_109" x1="219.347" y1="-141.165" x2="219.347" y2="463.944" gradientUnits="userSpaceOnUse">
<stop stop-color="#ECF3FE"/>
<stop offset="0.339" stop-color="#ECF3FE" stop-opacity="0.708"/>
<stop offset="1" stop-color="#ECF3FE" stop-opacity="0.31"/>
</linearGradient>
<linearGradient id="paint1_linear_2_109" x1="370.457" y1="128.52" x2="121.085" y2="361.384" gradientUnits="userSpaceOnUse">
<stop stop-color="#00E3F2"/>
<stop offset="0.287" stop-color="#0000F2"/>
<stop offset="0.641" stop-color="#F87D7D"/>
<stop offset="1" stop-color="#FF2828"/>
</linearGradient>
<linearGradient id="paint2_linear_2_109" x1="430.042" y1="-106.745" x2="153.971" y2="462.164" gradientUnits="userSpaceOnUse">
<stop stop-color="white"/>
<stop offset="1" stop-color="white"/>
</linearGradient>
<linearGradient id="paint3_linear_2_109" x1="114.274" y1="153.667" x2="114.274" y2="159.588" gradientUnits="userSpaceOnUse">
<stop stop-color="#A18EFF"/>
<stop offset="1" stop-color="#6A4DFF"/>
</linearGradient>
<linearGradient id="paint4_linear_2_109" x1="118.715" y1="233.6" x2="118.715" y2="239.522" gradientUnits="userSpaceOnUse">
<stop stop-color="#A18EFF"/>
<stop offset="1" stop-color="#6A4DFF"/>
</linearGradient>
<linearGradient id="paint5_linear_2_109" x1="118.715" y1="315.509" x2="118.715" y2="321.43" gradientUnits="userSpaceOnUse">
<stop stop-color="#A18EFF"/>
<stop offset="1" stop-color="#6A4DFF"/>
</linearGradient>
<linearGradient id="paint6_linear_2_109" x1="540.39" y1="38.355" x2="-10.2181" y2="112.92" gradientUnits="userSpaceOnUse">
<stop stop-color="#4B4D5E"/>
<stop offset="1" stop-color="#11121C"/>
</linearGradient>
<linearGradient id="paint7_linear_2_109" x1="200.77" y1="289.344" x2="200.77" y2="342.153" gradientUnits="userSpaceOnUse">
<stop stop-color="#A18EFF"/>
<stop offset="1" stop-color="#6A4DFF"/>
</linearGradient>
<linearGradient id="paint8_linear_2_109" x1="297.567" y1="239.433" x2="297.567" y2="342.153" gradientUnits="userSpaceOnUse">
<stop stop-color="#A18EFF"/>
<stop offset="1" stop-color="#6A4DFF"/>
</linearGradient>
<linearGradient id="paint9_linear_2_109" x1="394.366" y1="250.612" x2="394.366" y2="342.153" gradientUnits="userSpaceOnUse">
<stop stop-color="#A18EFF"/>
<stop offset="1" stop-color="#6A4DFF"/>
</linearGradient>
<linearGradient id="paint10_linear_2_109" x1="406.076" y1="140.509" x2="406.076" y2="212.699" gradientUnits="userSpaceOnUse">
<stop stop-color="#A18EFF"/>
<stop offset="1" stop-color="#6A4DFF"/>
</linearGradient>
<clipPath id="clip0_2_109">
<rect width="527" height="564.89" fill="white" transform="translate(0 0.640015)"/>
</clipPath>
<clipPath id="clip1_2_109">
<rect width="526.99" height="564.89" fill="white" transform="translate(0.00500488 0.640015)"/>
</clipPath>
</defs>
</svg>
