<svg width="527" height="579" viewBox="0 0 527 579" fill="none" xmlns="http://www.w3.org/2000/svg">
<g clip-path="url(#clip0_2_42)">
<g clip-path="url(#clip1_2_42)">
<path d="M296.155 497.694C420.051 497.694 520.489 400.089 520.489 279.689C520.489 159.288 420.051 61.683 296.155 61.683C172.258 61.683 71.8199 159.288 71.8199 279.689C71.8199 400.089 172.258 497.694 296.155 497.694Z" fill="url(#paint0_linear_2_42)"/>
<g opacity="0.35" filter="url(#filter0_f_2_42)">
<path d="M291.005 142.856C276.701 63.7273 181.95 101.996 163.414 109.309C161.805 110.93 133.332 109.845 99.0396 223.258C64.7484 336.673 170.947 363.219 215.173 351.133C259.398 339.046 251.543 390.22 293.72 462.913C335.898 535.606 413.347 416.9 421.557 354.556C429.768 292.212 334.095 321.076 310.761 315.551C287.427 310.026 305.307 221.985 291.005 142.856Z" fill="url(#paint1_linear_2_42)"/>
</g>
<path opacity="0.1" d="M461.773 168.919C463.907 168.919 465.954 168.071 467.463 166.562C468.973 165.053 469.82 163.006 469.82 160.871C469.82 158.737 468.973 156.69 467.463 155.181C465.954 153.671 463.907 152.823 461.773 152.823C459.638 152.823 457.591 153.671 456.082 155.181C454.573 156.69 453.725 158.737 453.725 160.871C453.725 163.006 454.573 165.053 456.082 166.562C457.591 168.071 459.638 168.919 461.773 168.919Z" fill="white"/>
<path opacity="0.5" d="M127.097 171.461C129.232 171.461 131.279 170.613 132.788 169.104C134.297 167.595 135.145 165.548 135.145 163.413C135.145 161.279 134.297 159.232 132.788 157.722C131.279 156.213 129.232 155.365 127.097 155.365C124.963 155.365 122.916 156.213 121.407 157.722C119.897 159.232 119.05 161.279 119.05 163.413C119.05 165.548 119.897 167.595 121.407 169.104C122.916 170.613 124.963 171.461 127.097 171.461Z" fill="white"/>
<path opacity="0.12" d="M147.832 473.198C143.335 473.198 139.226 470.161 138.064 465.611L71.4156 204.622C70.0405 199.236 73.303 193.737 78.6873 192.361L280.304 140.876C285.689 139.502 291.189 142.763 292.565 148.15L359.211 409.139C359.543 410.421 359.616 411.756 359.428 413.067C359.24 414.378 358.793 415.638 358.113 416.775C357.441 417.916 356.549 418.912 355.489 419.706C354.429 420.5 353.222 421.075 351.938 421.399L150.323 472.885C149.489 473.098 148.653 473.199 147.83 473.199L147.832 473.198ZM282.796 142.481C282.13 142.481 281.453 142.562 280.778 142.735L79.1636 194.221C74.8037 195.334 72.1623 199.787 73.2753 204.147L139.922 465.137C140.863 468.821 144.191 471.278 147.83 471.278C148.511 471.278 149.189 471.193 149.848 471.024L351.464 419.539C352.503 419.276 353.48 418.81 354.338 418.168C355.196 417.525 355.918 416.719 356.462 415.796C357.012 414.875 357.373 413.855 357.525 412.793C357.678 411.732 357.619 410.651 357.351 409.613L290.704 148.624C289.764 144.94 286.436 142.483 282.796 142.483V142.481Z" fill="white"/>
<g style="mix-blend-mode:multiply" opacity="0.15">
<path d="M381.604 381.624L246.025 148.868C243.49 144.515 237.906 143.042 233.555 145.578L53.7481 250.313C49.3947 252.848 47.9226 258.433 50.4579 262.784L186.037 495.54C188.572 499.893 194.157 501.365 198.509 498.83L378.313 394.095C382.667 391.56 384.139 385.976 381.604 381.624Z" fill="#6A4DFF"/>
</g>
<path d="M381.352 386.388L201.547 491.123C199.563 492.279 197.2 492.599 194.98 492.013C192.759 491.427 190.863 489.983 189.707 487.999L54.1256 255.243C52.9698 253.259 52.6497 250.896 53.2355 248.676C53.8214 246.455 55.2654 244.559 57.2497 243.403L237.056 138.668C239.04 137.512 241.402 137.192 243.623 137.778C245.843 138.363 247.74 139.807 248.896 141.792L384.476 374.547C386.883 378.68 385.483 383.981 381.352 386.388Z" fill="url(#paint2_linear_2_42)" stroke="#6A4DFF" stroke-width="0.922923"/>
<path d="M128.326 291.165L119.158 275.382C118.6 274.425 117.686 273.728 116.615 273.445C115.544 273.161 114.405 273.314 113.446 273.869L97.6636 283.038C96.707 283.596 96.0107 284.51 95.7272 285.581C95.4437 286.651 95.596 287.79 96.1509 288.749L105.318 304.532C105.877 305.488 106.792 306.184 107.862 306.467C108.932 306.751 110.072 306.599 111.03 306.044L126.812 296.876C127.769 296.318 128.466 295.404 128.749 294.333C129.033 293.263 128.881 292.123 128.326 291.165ZM125.912 295.323L110.131 304.494C109.584 304.811 108.933 304.897 108.322 304.735C107.711 304.572 107.19 304.173 106.872 303.626L97.706 287.847C97.3879 287.3 97.3001 286.649 97.4619 286.037C97.6238 285.425 98.022 284.903 98.5689 284.585L114.348 275.418C114.895 275.102 115.546 275.015 116.157 275.176C116.768 275.338 117.29 275.735 117.609 276.281L126.776 292.063C127.093 292.61 127.18 293.26 127.018 293.871C126.856 294.482 126.458 295.004 125.912 295.323Z" fill="#6A4DFF"/>
<path d="M113.647 297.62C113.449 297.749 113.227 297.837 112.994 297.88C112.762 297.924 112.523 297.92 112.292 297.871L106.232 296.581C106.001 296.532 105.781 296.437 105.586 296.303C105.392 296.17 105.225 295.999 105.096 295.8C104.968 295.602 104.879 295.38 104.836 295.148C104.793 294.915 104.796 294.676 104.846 294.445C104.946 293.978 105.227 293.57 105.627 293.31C106.027 293.051 106.514 292.96 106.981 293.059L111.281 293.974L114.019 281.114C114.132 280.661 114.417 280.27 114.813 280.023C115.209 279.777 115.685 279.693 116.141 279.79C116.597 279.887 116.998 280.157 117.259 280.544C117.52 280.931 117.621 281.403 117.541 281.863L114.428 296.485C114.378 296.716 114.284 296.935 114.15 297.13C114.016 297.325 113.845 297.491 113.647 297.62ZM195.289 237.672L141.346 269.092C140.519 269.574 139.535 269.707 138.61 269.463C137.684 269.219 136.894 268.618 136.413 267.791C135.931 266.964 135.797 265.98 136.042 265.055C136.286 264.13 136.887 263.34 137.714 262.858L191.656 231.436C192.483 230.955 193.467 230.821 194.392 231.065C195.318 231.309 196.108 231.911 196.59 232.738C197.071 233.564 197.205 234.549 196.961 235.474C196.717 236.399 196.115 237.19 195.289 237.672ZM264.143 213.735L148.378 281.167C147.968 281.418 147.513 281.585 147.037 281.658C146.562 281.73 146.077 281.707 145.611 281.59C145.145 281.472 144.707 281.263 144.323 280.974C143.939 280.685 143.617 280.322 143.375 279.907C143.133 279.492 142.976 279.032 142.914 278.556C142.852 278.079 142.886 277.595 143.014 277.131C143.141 276.668 143.36 276.235 143.658 275.857C143.955 275.48 144.325 275.165 144.746 274.933L260.511 207.5C261.337 207.018 262.322 206.885 263.247 207.129C264.172 207.373 264.962 207.974 265.444 208.801C265.926 209.628 266.059 210.612 265.815 211.537C265.571 212.462 264.97 213.253 264.143 213.735ZM153.092 333.68L143.924 317.898C143.367 316.94 142.452 316.243 141.382 315.96C140.311 315.676 139.171 315.829 138.213 316.385L122.43 325.552C121.474 326.11 120.777 327.025 120.494 328.095C120.21 329.166 120.362 330.305 120.918 331.263L130.085 347.046C130.643 348.003 131.558 348.699 132.628 348.982C133.698 349.266 134.838 349.114 135.796 348.559L151.579 339.391C152.536 338.834 153.233 337.919 153.516 336.848C153.8 335.777 153.647 334.638 153.092 333.68ZM150.679 337.837L134.898 347.008C134.351 347.325 133.7 347.412 133.089 347.249C132.478 347.086 131.956 346.688 131.639 346.141L122.473 330.362C122.155 329.815 122.067 329.164 122.228 328.552C122.39 327.941 122.788 327.418 123.335 327.1L139.114 317.934C139.661 317.617 140.311 317.529 140.923 317.691C141.534 317.853 142.056 318.25 142.376 318.796L151.543 334.578C151.86 335.125 151.946 335.776 151.784 336.386C151.623 336.997 151.225 337.519 150.679 337.837Z" fill="#6A4DFF"/>
<path d="M138.412 340.136C138.213 340.265 137.992 340.353 137.759 340.397C137.527 340.44 137.288 340.436 137.057 340.387L130.997 339.098C130.766 339.049 130.546 338.954 130.351 338.821C130.157 338.687 129.99 338.516 129.861 338.317C129.733 338.119 129.644 337.897 129.601 337.665C129.558 337.432 129.561 337.194 129.611 336.962C129.66 336.731 129.754 336.512 129.888 336.317C130.022 336.122 130.193 335.956 130.391 335.827C130.59 335.698 130.811 335.61 131.044 335.567C131.276 335.524 131.515 335.527 131.746 335.576L136.046 336.491L138.784 323.63C138.897 323.177 139.181 322.785 139.577 322.538C139.973 322.291 140.45 322.207 140.907 322.304C141.364 322.401 141.765 322.672 142.026 323.06C142.286 323.447 142.387 323.92 142.305 324.38L139.192 339.001C139.088 339.487 138.798 339.887 138.412 340.136ZM220.052 280.188L166.11 311.61C165.285 312.073 164.31 312.192 163.397 311.943C162.483 311.694 161.704 311.096 161.228 310.278C160.751 309.46 160.615 308.488 160.849 307.571C161.083 306.653 161.668 305.864 162.478 305.374L216.421 273.953C216.83 273.715 217.282 273.559 217.752 273.496C218.221 273.432 218.699 273.461 219.157 273.582C219.615 273.703 220.045 273.913 220.422 274.2C220.799 274.487 221.115 274.845 221.354 275.255C221.592 275.664 221.748 276.116 221.812 276.586C221.875 277.055 221.846 277.533 221.725 277.991C221.604 278.449 221.394 278.879 221.107 279.256C220.82 279.633 220.462 279.949 220.052 280.188ZM288.907 256.25L173.142 323.682C172.315 324.164 171.331 324.298 170.406 324.054C169.48 323.81 168.69 323.208 168.208 322.381C167.726 321.554 167.593 320.57 167.837 319.645C168.081 318.719 168.683 317.929 169.509 317.447L285.275 250.015C286.1 249.552 287.075 249.432 287.988 249.681C288.902 249.93 289.681 250.528 290.157 251.346C290.634 252.164 290.77 253.136 290.536 254.054C290.302 254.971 289.717 255.76 288.907 256.25ZM177.856 376.197L168.688 360.414C168.131 359.457 167.216 358.76 166.145 358.476C165.075 358.193 163.935 358.346 162.977 358.901L147.194 368.069C146.238 368.627 145.541 369.541 145.258 370.612C144.974 371.683 145.127 372.822 145.681 373.78L154.849 389.562C155.407 390.519 156.322 391.215 157.392 391.499C158.463 391.782 159.602 391.63 160.561 391.076L176.343 381.908C177.3 381.35 177.996 380.436 178.28 379.365C178.564 378.295 178.411 377.155 177.856 376.197ZM175.443 380.354L159.662 389.526C159.115 389.842 158.464 389.929 157.853 389.766C157.242 389.603 156.721 389.205 156.403 388.658L147.237 372.879C146.918 372.332 146.831 371.681 146.993 371.069C147.154 370.457 147.553 369.935 148.1 369.616L163.879 360.45C164.426 360.133 165.076 360.046 165.687 360.208C166.298 360.37 166.82 360.767 167.139 361.313L176.307 377.095C176.623 377.642 176.71 378.292 176.548 378.903C176.387 379.514 175.989 380.036 175.443 380.354ZM244.819 322.704L190.877 354.125C190.467 354.376 190.011 354.543 189.536 354.616C189.061 354.688 188.576 354.665 188.11 354.548C187.644 354.43 187.206 354.221 186.822 353.932C186.438 353.643 186.115 353.28 185.873 352.865C185.631 352.45 185.475 351.99 185.413 351.514C185.351 351.037 185.385 350.553 185.512 350.089C185.64 349.626 185.859 349.193 186.157 348.815C186.454 348.438 186.824 348.123 187.244 347.891L241.186 316.469C242.012 316.006 242.987 315.886 243.9 316.135C244.814 316.384 245.593 316.982 246.069 317.8C246.546 318.618 246.682 319.591 246.448 320.508C246.214 321.425 245.629 322.214 244.819 322.704ZM313.674 298.766L197.909 366.199C197.499 366.45 197.043 366.617 196.568 366.689C196.093 366.762 195.608 366.739 195.142 366.621C194.676 366.504 194.238 366.295 193.854 366.006C193.47 365.717 193.147 365.354 192.905 364.939C192.663 364.523 192.507 364.064 192.445 363.587C192.383 363.111 192.416 362.626 192.544 362.163C192.672 361.7 192.891 361.267 193.188 360.889C193.486 360.511 193.856 360.197 194.276 359.964L310.041 292.532C310.451 292.293 310.903 292.138 311.372 292.074C311.842 292.01 312.319 292.04 312.777 292.161C313.235 292.281 313.665 292.491 314.042 292.778C314.419 293.065 314.736 293.423 314.975 293.833C315.213 294.242 315.369 294.694 315.432 295.164C315.496 295.633 315.467 296.111 315.346 296.569C315.225 297.027 315.015 297.457 314.728 297.834C314.442 298.211 314.083 298.528 313.674 298.766ZM202.622 418.713L193.454 402.931C192.897 401.974 191.982 401.276 190.911 400.993C189.841 400.709 188.701 400.862 187.743 401.417L171.961 410.586C171.004 411.143 170.307 412.058 170.024 413.128C169.74 414.199 169.892 415.338 170.447 416.297L179.616 432.08C180.174 433.036 181.088 433.732 182.159 434.016C183.229 434.299 184.368 434.147 185.327 433.592L201.109 424.425C202.066 423.867 202.762 422.952 203.046 421.882C203.329 420.811 203.177 419.671 202.622 418.713ZM200.209 422.871L184.429 432.042C183.881 432.358 183.23 432.445 182.619 432.282C182.008 432.12 181.486 431.721 181.169 431.174L172.002 415.395C171.684 414.848 171.596 414.197 171.758 413.585C171.92 412.973 172.318 412.451 172.865 412.133L188.644 402.967C189.191 402.65 189.842 402.563 190.453 402.725C191.064 402.886 191.586 403.283 191.905 403.829L201.073 419.612C201.39 420.159 201.476 420.809 201.314 421.42C201.152 422.031 200.755 422.552 200.209 422.871Z" fill="#6A4DFF"/>
<path d="M187.942 425.17C187.744 425.299 187.522 425.387 187.29 425.43C187.057 425.473 186.818 425.47 186.587 425.421L180.526 424.131C180.295 424.081 180.076 423.987 179.881 423.853C179.687 423.719 179.52 423.548 179.391 423.35C179.263 423.151 179.174 422.93 179.132 422.697C179.089 422.465 179.092 422.226 179.141 421.995C179.19 421.764 179.285 421.545 179.419 421.35C179.553 421.155 179.724 420.989 179.922 420.86C180.12 420.731 180.342 420.643 180.574 420.6C180.807 420.557 181.046 420.56 181.277 420.61L185.576 421.524L188.314 408.663C188.363 408.432 188.458 408.213 188.591 408.018C188.725 407.823 188.896 407.657 189.095 407.528C189.293 407.4 189.515 407.311 189.747 407.268C189.979 407.225 190.218 407.228 190.449 407.278C190.68 407.327 190.9 407.421 191.094 407.555C191.289 407.689 191.456 407.86 191.584 408.058C191.713 408.256 191.801 408.478 191.844 408.711C191.887 408.943 191.884 409.182 191.835 409.413L188.723 424.035C188.674 424.266 188.58 424.485 188.446 424.68C188.312 424.875 188.14 425.041 187.942 425.17ZM269.584 365.219L215.641 396.641C214.815 397.104 213.84 397.224 212.927 396.975C212.014 396.726 211.235 396.128 210.758 395.31C210.282 394.492 210.146 393.52 210.379 392.602C210.613 391.685 211.198 390.896 212.008 390.406L265.951 358.985C266.361 358.747 266.813 358.591 267.282 358.527C267.752 358.464 268.229 358.493 268.687 358.614C269.146 358.735 269.575 358.944 269.952 359.231C270.329 359.518 270.646 359.877 270.885 360.286C271.123 360.695 271.279 361.148 271.343 361.617C271.406 362.087 271.377 362.564 271.256 363.022C271.135 363.48 270.925 363.91 270.639 364.287C270.352 364.664 269.993 364.981 269.584 365.219ZM338.44 341.283L222.675 408.716C221.85 409.179 220.875 409.299 219.962 409.05C219.048 408.801 218.269 408.203 217.793 407.385C217.316 406.567 217.18 405.594 217.414 404.677C217.648 403.759 218.233 402.971 219.043 402.481L334.807 335.048C335.632 334.592 336.603 334.476 337.513 334.727C338.422 334.977 339.197 335.574 339.672 336.389C340.147 337.204 340.284 338.172 340.053 339.087C339.823 340.002 339.244 340.79 338.44 341.283ZM339.517 388.018L223.601 455.539C223.062 455.839 222.426 455.916 221.83 455.752C221.235 455.589 220.727 455.198 220.416 454.665C220.106 454.131 220.017 453.497 220.168 452.899C220.32 452.3 220.701 451.785 221.228 451.464L337.145 383.944C337.412 383.788 337.708 383.686 338.014 383.645C338.321 383.603 338.633 383.622 338.932 383.701C339.232 383.78 339.513 383.918 339.759 384.105C340.005 384.293 340.212 384.527 340.368 384.794C340.524 385.062 340.625 385.357 340.667 385.664C340.709 385.971 340.689 386.283 340.61 386.582C340.531 386.881 340.394 387.162 340.207 387.408C340.019 387.655 339.785 387.862 339.517 388.018Z" fill="#6A4DFF"/>
<g style="mix-blend-mode:multiply" opacity="0.2">
<path d="M391.036 413.827L381.14 175.695C380.955 171.242 376.727 167.72 371.697 167.827L310.839 169.137L310.33 156.895C310.259 155.154 308.603 153.777 306.636 153.82L292.592 154.123C292.336 154.128 292.079 154.109 291.825 154.067C290.483 153.835 289.372 152.933 289.011 151.721C286.384 142.872 277.131 136.417 266.397 136.647C255.663 136.878 246.964 143.721 245.077 152.667C244.769 154.12 243.376 155.184 241.701 155.22L227.656 155.523C225.69 155.565 224.153 157.009 224.224 158.751L224.733 170.994L163.875 172.304C158.845 172.412 154.917 176.11 155.103 180.562L164.998 418.695C165.184 423.148 169.412 426.67 174.442 426.561L382.26 422.089C387.291 421.98 391.219 418.283 391.033 413.83L391.036 413.827ZM267.11 153.755C270.942 153.672 274.165 156.356 274.305 159.749C274.446 163.142 271.452 165.96 267.62 166.042C263.787 166.125 260.564 163.44 260.423 160.047C260.282 156.654 263.276 153.836 267.109 153.753L267.11 153.755Z" fill="#3A7EC1"/>
</g>
<path d="M163.988 143.015C163.84 138.235 167.594 134.24 172.376 134.092L380.361 127.66C385.14 127.511 389.135 131.266 389.283 136.047L397.61 405.283C397.759 410.063 394.003 414.057 389.222 414.206L181.237 420.637C176.457 420.786 172.463 417.031 172.314 412.25L163.988 143.015Z" fill="white"/>
<path d="M380.361 127.66L172.376 134.092C167.594 134.24 163.84 138.235 163.988 143.015L172.314 412.25C172.463 417.031 176.457 420.786 181.237 420.637M380.361 127.66L380.347 127.198M380.361 127.66C385.14 127.511 389.135 131.266 389.283 136.047L397.61 405.283M397.61 405.283L398.071 405.269M397.61 405.283C397.759 410.063 394.003 414.057 389.222 414.206L181.237 420.637M181.237 420.637L181.251 421.099" stroke="#6A4DFF" stroke-width="0.922923"/>
<path d="M209.838 186.737L209.295 168.494C209.261 167.387 208.789 166.338 207.982 165.579C207.176 164.819 206.101 164.41 204.994 164.442L186.752 164.986C185.645 165.02 184.597 165.492 183.837 166.298C183.078 167.104 182.669 168.179 182.7 169.286L183.243 187.529C183.278 188.636 183.75 189.684 184.556 190.443C185.362 191.202 186.436 191.611 187.543 191.58L205.787 191.037C206.894 191.003 207.942 190.531 208.701 189.725C209.46 188.918 209.869 187.844 209.838 186.737ZM205.735 189.244L187.492 189.79C186.86 189.808 186.246 189.574 185.786 189.14C185.326 188.706 185.057 188.107 185.038 187.475L184.495 169.235C184.476 168.603 184.709 167.988 185.142 167.528C185.576 167.067 186.175 166.797 186.807 166.777L205.047 166.234C205.679 166.217 206.292 166.45 206.753 166.883C207.213 167.317 207.483 167.914 207.504 168.546L208.047 186.79C208.065 187.421 207.831 188.034 207.398 188.494C206.965 188.954 206.367 189.224 205.735 189.244Z" fill="#E4ECF9"/>
<path d="M194.568 183.02C194.406 183.032 194.244 183.013 194.09 182.963C193.936 182.913 193.794 182.833 193.671 182.728L190.445 179.976C190.208 179.76 190.064 179.461 190.044 179.142C190.024 178.822 190.129 178.507 190.337 178.264C190.544 178.02 190.839 177.867 191.158 177.836C191.476 177.806 191.794 177.901 192.044 178.1L194.333 180.052L200.173 173.205C200.387 172.965 200.687 172.819 201.009 172.797C201.33 172.775 201.647 172.88 201.892 173.089C202.137 173.298 202.291 173.595 202.32 173.916C202.349 174.236 202.251 174.556 202.048 174.806L195.409 182.59C195.305 182.713 195.176 182.814 195.032 182.888C194.888 182.961 194.731 183.005 194.57 183.018L194.568 183.02Z" fill="#0056FF"/>
<path d="M294.195 171.602L231.798 173.531C231.322 173.55 230.847 173.474 230.4 173.308C229.954 173.142 229.545 172.89 229.197 172.565C228.848 172.24 228.568 171.85 228.371 171.416C228.174 170.982 228.066 170.514 228.051 170.038C228.036 169.562 228.116 169.088 228.285 168.643C228.455 168.198 228.71 167.79 229.038 167.445C229.366 167.099 229.758 166.822 230.194 166.628C230.629 166.435 231.098 166.33 231.574 166.319L293.972 164.39C294.453 164.364 294.933 164.434 295.387 164.596C295.84 164.758 296.256 165.009 296.61 165.335C296.965 165.66 297.251 166.053 297.451 166.49C297.651 166.928 297.762 167.401 297.777 167.882C297.792 168.363 297.711 168.842 297.538 169.291C297.365 169.74 297.104 170.15 296.77 170.497C296.436 170.843 296.037 171.12 295.594 171.309C295.152 171.499 294.677 171.599 294.195 171.602ZM366.139 183.358L232.231 187.5C231.285 187.513 230.372 187.154 229.689 186.5C229.005 185.846 228.605 184.95 228.576 184.004C228.547 183.059 228.89 182.139 229.531 181.444C230.173 180.749 231.062 180.334 232.007 180.288L365.916 176.146C366.862 176.133 367.774 176.493 368.458 177.147C369.141 177.801 369.541 178.697 369.57 179.642C369.599 180.588 369.256 181.507 368.614 182.202C367.973 182.897 367.084 183.312 366.139 183.358Z" fill="#D7E4F9"/>
<path d="M211.358 235.917L210.815 217.674C210.781 216.566 210.309 215.518 209.503 214.758C208.696 213.999 207.621 213.591 206.514 213.623L188.271 214.166C187.164 214.2 186.116 214.672 185.357 215.478C184.597 216.284 184.189 217.359 184.22 218.465L184.763 236.709C184.798 237.816 185.27 238.864 186.076 239.623C186.882 240.382 187.956 240.791 189.063 240.76L207.307 240.217C208.414 240.182 209.462 239.71 210.221 238.904C210.98 238.098 211.389 237.024 211.358 235.917ZM207.255 238.424L189.012 238.97C188.38 238.987 187.766 238.753 187.306 238.319C186.846 237.885 186.577 237.287 186.558 236.654L186.015 218.415C185.996 217.782 186.229 217.168 186.663 216.708C187.096 216.247 187.695 215.977 188.327 215.958L206.567 215.414C207.199 215.397 207.812 215.63 208.273 216.063C208.733 216.496 209.003 217.094 209.024 217.726L209.567 235.97C209.585 236.601 209.351 237.214 208.918 237.674C208.485 238.134 207.887 238.404 207.255 238.424Z" fill="#E4ECF9"/>
<path d="M195.936 232.707C195.76 232.721 195.581 232.701 195.413 232.646C195.244 232.591 195.087 232.503 194.953 232.388L191.412 229.367C191.146 229.132 190.983 228.802 190.958 228.448C190.933 228.094 191.048 227.744 191.278 227.474C191.509 227.204 191.836 227.035 192.19 227.005C192.543 226.974 192.895 227.083 193.169 227.309L195.68 229.451L202.089 221.937C202.326 221.68 202.654 221.525 203.003 221.505C203.352 221.484 203.695 221.6 203.961 221.826C204.227 222.053 204.395 222.374 204.43 222.722C204.464 223.07 204.363 223.418 204.147 223.693L196.861 232.236C196.619 232.52 196.284 232.679 195.939 232.706L195.936 232.707Z" fill="#0056FF"/>
<path d="M295.717 220.782L233.319 222.712C232.374 222.724 231.461 222.365 230.777 221.711C230.094 221.057 229.695 220.161 229.665 219.215C229.636 218.27 229.979 217.351 230.621 216.656C231.263 215.961 232.151 215.545 233.096 215.499L295.494 213.57C295.968 213.556 296.439 213.634 296.883 213.802C297.326 213.97 297.731 214.223 298.077 214.547C298.422 214.872 298.7 215.261 298.895 215.693C299.089 216.125 299.197 216.591 299.212 217.065C299.226 217.538 299.148 218.01 298.98 218.453C298.812 218.896 298.559 219.302 298.235 219.647C297.91 219.992 297.521 220.27 297.089 220.465C296.657 220.66 296.191 220.768 295.717 220.782Z" fill="#E4ECF9"/>
<path d="M367.659 232.538L233.751 236.68C232.805 236.693 231.892 236.334 231.209 235.68C230.525 235.026 230.126 234.13 230.096 233.184C230.067 232.239 230.41 231.319 231.052 230.624C231.693 229.929 232.582 229.514 233.527 229.468L367.436 225.326C367.91 225.311 368.381 225.39 368.825 225.557C369.268 225.725 369.673 225.978 370.019 226.303C370.364 226.627 370.642 227.017 370.837 227.449C371.031 227.881 371.139 228.347 371.154 228.82C371.169 229.294 371.09 229.766 370.922 230.209C370.754 230.652 370.501 231.058 370.177 231.403C369.852 231.748 369.463 232.026 369.031 232.221C368.599 232.416 368.133 232.524 367.659 232.538Z" fill="#D7E4F9"/>
<path d="M212.879 285.097L212.336 266.853C212.302 265.746 211.83 264.698 211.024 263.939C210.218 263.179 209.143 262.771 208.036 262.803L189.793 263.345C188.686 263.38 187.638 263.852 186.878 264.658C186.119 265.464 185.71 266.538 185.741 267.645L186.285 285.889C186.32 286.996 186.792 288.043 187.598 288.803C188.404 289.562 189.478 289.971 190.584 289.94L208.828 289.397C209.935 289.363 210.983 288.891 211.742 288.085C212.502 287.278 212.91 286.204 212.879 285.097ZM208.777 287.604L190.534 288.15C189.901 288.168 189.288 287.934 188.828 287.5C188.368 287.065 188.099 286.467 188.08 285.834L187.536 267.595C187.517 266.962 187.75 266.348 188.184 265.888C188.618 265.427 189.217 265.157 189.849 265.138L208.089 264.594C208.721 264.576 209.334 264.81 209.794 265.243C210.255 265.676 210.525 266.274 210.545 266.906L211.089 285.15C211.107 285.781 210.873 286.394 210.44 286.854C210.007 287.314 209.409 287.584 208.777 287.604Z" fill="#E4ECF9"/>
<path d="M297.237 269.963L234.84 271.892C233.894 271.904 232.981 271.545 232.298 270.891C231.614 270.237 231.215 269.34 231.186 268.395C231.156 267.45 231.499 266.531 232.141 265.836C232.783 265.141 233.671 264.725 234.616 264.679L297.014 262.75C297.488 262.735 297.96 262.814 298.403 262.982C298.846 263.15 299.252 263.403 299.597 263.727C299.942 264.052 300.22 264.441 300.415 264.873C300.61 265.305 300.717 265.771 300.732 266.245C300.747 266.718 300.668 267.19 300.5 267.633C300.333 268.077 300.079 268.482 299.755 268.828C299.43 269.173 299.041 269.451 298.609 269.646C298.177 269.84 297.711 269.948 297.237 269.963ZM369.181 281.716L235.273 285.858C234.327 285.871 233.414 285.512 232.731 284.858C232.047 284.204 231.647 283.308 231.618 282.362C231.589 281.417 231.932 280.497 232.573 279.802C233.215 279.107 234.104 278.692 235.049 278.646L368.957 274.504C369.436 274.48 369.914 274.552 370.365 274.716C370.815 274.88 371.229 275.131 371.581 275.456C371.933 275.781 372.217 276.173 372.416 276.609C372.615 277.045 372.725 277.517 372.74 277.996C372.755 278.475 372.674 278.952 372.502 279.399C372.331 279.847 372.072 280.256 371.741 280.602C371.409 280.949 371.012 281.225 370.573 281.417C370.134 281.608 369.66 281.71 369.181 281.716Z" fill="#D7E4F9"/>
<path d="M216.983 332.353L216.439 314.11C216.405 313.003 215.933 311.955 215.127 311.195C214.321 310.436 213.246 310.027 212.139 310.059L193.896 310.602C192.789 310.637 191.741 311.109 190.982 311.915C190.222 312.721 189.814 313.796 189.845 314.903L190.388 333.145C190.423 334.252 190.895 335.3 191.701 336.059C192.507 336.819 193.582 337.228 194.689 337.197L212.931 336.653C214.038 336.619 215.086 336.147 215.846 335.341C216.605 334.535 217.014 333.46 216.983 332.353ZM212.88 334.86L194.637 335.406C194.005 335.424 193.391 335.19 192.931 334.756C192.471 334.322 192.202 333.723 192.183 333.091L191.64 314.851C191.621 314.219 191.854 313.605 192.287 313.144C192.721 312.683 193.32 312.413 193.952 312.394L212.192 311.851C212.824 311.833 213.438 312.066 213.898 312.5C214.359 312.933 214.629 313.531 214.65 314.163L215.192 332.406C215.21 333.038 214.977 333.65 214.543 334.11C214.11 334.57 213.512 334.84 212.88 334.86Z" fill="#E4ECF9"/>
<path d="M301.341 317.219L238.943 319.148C238.469 319.163 237.997 319.084 237.554 318.916C237.111 318.749 236.705 318.495 236.36 318.171C236.015 317.846 235.737 317.457 235.542 317.025C235.347 316.593 235.239 316.127 235.225 315.654C235.21 315.18 235.289 314.708 235.457 314.265C235.624 313.822 235.878 313.416 236.202 313.071C236.527 312.726 236.916 312.448 237.348 312.253C237.78 312.058 238.246 311.95 238.719 311.936L301.117 310.007C302.074 309.977 303.003 310.329 303.7 310.984C304.397 311.639 304.806 312.545 304.835 313.501C304.865 314.458 304.513 315.387 303.858 316.084C303.203 316.781 302.297 317.19 301.341 317.219ZM373.284 328.973L239.376 333.115C238.9 333.133 238.425 333.058 237.979 332.892C237.532 332.726 237.123 332.473 236.775 332.148C236.426 331.824 236.146 331.433 235.949 331C235.753 330.566 235.644 330.097 235.629 329.621C235.614 329.145 235.694 328.671 235.863 328.226C236.033 327.781 236.289 327.374 236.616 327.028C236.944 326.683 237.336 326.405 237.772 326.212C238.207 326.019 238.676 325.914 239.152 325.903L373.06 321.761C374.002 321.754 374.91 322.116 375.589 322.769C376.268 323.423 376.664 324.316 376.693 325.257C376.723 326.199 376.382 327.115 375.745 327.809C375.108 328.503 374.225 328.921 373.284 328.973ZM373.551 344.634L240.457 349.037C239.984 349.052 239.512 348.973 239.069 348.805C238.626 348.638 238.22 348.384 237.875 348.06C237.529 347.735 237.251 347.346 237.057 346.914C236.862 346.482 236.754 346.016 236.739 345.542C236.725 345.069 236.803 344.597 236.971 344.154C237.139 343.711 237.392 343.305 237.717 342.96C238.041 342.614 238.43 342.336 238.862 342.142C239.294 341.947 239.76 341.839 240.234 341.824L373.328 337.421C374.274 337.409 375.186 337.768 375.87 338.422C376.553 339.076 376.953 339.972 376.982 340.918C377.011 341.863 376.668 342.782 376.026 343.477C375.385 344.172 374.496 344.588 373.551 344.634ZM374.799 358.862L240.891 363.004C239.945 363.016 239.032 362.657 238.348 362.003C237.665 361.349 237.265 360.453 237.236 359.507C237.206 358.562 237.55 357.643 238.191 356.948C238.833 356.252 239.722 355.837 240.667 355.791L374.576 351.649C375.521 351.637 376.434 351.996 377.118 352.65C377.801 353.304 378.2 354.2 378.23 355.146C378.259 356.091 377.916 357.01 377.274 357.705C376.633 358.4 375.744 358.815 374.799 358.862Z" fill="#D7E4F9"/>
<path d="M351.665 403.279L217.58 407.425C216.955 407.444 216.348 407.214 215.892 406.786C215.437 406.358 215.17 405.766 215.151 405.141C215.131 404.517 215.361 403.91 215.789 403.454C216.218 402.998 216.809 402.732 217.434 402.712L351.518 398.567C351.828 398.557 352.136 398.608 352.426 398.718C352.715 398.827 352.98 398.993 353.206 399.205C353.431 399.417 353.613 399.671 353.74 399.953C353.868 400.236 353.938 400.54 353.948 400.849C353.957 401.159 353.906 401.467 353.797 401.757C353.687 402.046 353.522 402.311 353.31 402.537C353.098 402.763 352.843 402.944 352.561 403.072C352.279 403.199 351.974 403.269 351.665 403.279Z" fill="#C3D8F9"/>
<path d="M286.97 485.437C296.016 489.236 307.43 488.251 316.344 484.624C324.879 481.148 334.828 473.59 334.143 463.291C333.894 459.539 331.401 455.96 327.231 456.93C323.355 457.828 321.503 461.737 322.576 465.426C325.477 475.391 339.88 473.828 347.206 470.705C351.857 468.723 355.974 465.672 359.226 461.802C362.221 458.223 365.104 453.449 365.351 448.689C365.386 448.003 364.265 447.794 364.02 448.422C362.728 451.776 361.764 455.061 359.752 458.095C357.663 461.245 354.928 463.975 351.827 466.128C345.671 470.401 336.378 473.298 329.106 470.175C325.252 468.52 321.272 462.481 325.884 459.271C327.753 457.971 330.319 458.041 331.616 460.085C332.799 461.951 332.745 464.543 332.349 466.622C330.739 475.093 322.254 480.879 314.724 483.778C310.455 485.415 305.946 486.338 301.377 486.509C296.493 486.697 291.955 485.767 287.244 484.64C286.784 484.528 286.521 485.249 286.97 485.437Z" fill="#6A4DFF"/>
<path d="M284.46 484.494C293.241 490.945 305.143 491.251 314.859 486.757C319.534 484.595 323.718 481.502 327.339 477.858C331.032 474.137 334.932 469.53 336.289 464.361C337.24 460.755 336.512 454.46 331.607 454.3C327.292 454.156 322.607 458.342 321.816 462.456C320.931 467.06 324.571 471.047 328.685 472.458C333.599 474.142 339.358 473.113 344.164 471.522C354.686 468.037 363.509 459.785 367.433 449.423C367.807 448.435 366.338 447.676 365.945 448.678C363.028 456.17 357.672 462.464 350.78 466.623C347.269 468.743 343.369 470.275 339.334 471.051C334.715 471.938 329.031 472.238 325.429 468.657C321.451 464.704 323.646 459.393 328.041 456.921C330.604 455.48 333.461 455.319 334.718 458.483C335.739 461.049 335.002 464.058 333.883 466.465C330.294 474.173 322.838 481.066 315.313 484.877C305.88 489.655 294.024 489.973 285.186 483.682C284.619 483.272 283.89 484.075 284.46 484.494Z" fill="#6A4DFF"/>
<path d="M357.341 454.436C359.304 453.42 361.136 452.101 362.998 450.914C363.879 450.353 364.762 449.793 365.644 449.228C366.051 448.967 368.023 447.358 368.464 447.561C368.692 447.663 368.665 450.306 368.69 450.653L368.916 453.745C369.065 455.754 368.846 458.231 369.674 460.091C369.969 460.757 370.888 460.716 371.081 459.997C371.442 458.665 371.158 457.289 371.048 455.923C370.925 454.379 370.797 452.834 370.673 451.29C370.555 449.861 370.977 446.488 369.359 445.679C367.815 444.906 365.574 447.328 364.423 448.1C361.839 449.83 359.065 451.434 356.652 453.389C356.01 453.904 356.626 454.806 357.341 454.436Z" fill="#6A4DFF"/>
<path d="M357.799 454.821C359.658 453.344 361.152 451.329 362.828 449.645C364.775 447.693 366.794 445.784 369.004 444.129L367.528 443.406C367.77 445.967 367.909 448.536 367.904 451.11C367.902 453.61 367.286 456.337 367.663 458.796C367.774 459.51 368.908 459.941 369.222 459.108C370.058 456.889 369.884 454.047 369.905 451.702C369.92 448.885 369.76 446.07 369.425 443.273C369.325 442.426 368.356 442.146 367.765 442.708C365.801 444.584 363.79 446.392 361.91 448.357C360.221 450.125 358.229 452.019 357.091 454.194C356.881 454.608 357.41 455.129 357.799 454.821Z" fill="#6A4DFF"/>
<path d="M357.145 456.758C361.385 452.325 365.601 447.866 369.89 443.48L368.231 442.915C368.77 445.748 369.285 448.58 369.618 451.445C369.921 454.083 369.747 456.953 370.439 459.515C370.657 460.323 371.878 460.177 372.028 459.408C372.559 456.717 371.937 453.624 371.59 450.931C371.227 448.114 370.749 445.305 370.081 442.545C369.908 441.834 368.91 441.723 368.471 442.222C364.412 446.818 360.279 451.346 356.166 455.894C355.597 456.518 356.566 457.367 357.145 456.758Z" fill="#6A4DFF"/>
<g style="mix-blend-mode:multiply" opacity="0.18">
<path d="M518.389 283.121C507.604 273.962 486.737 265.557 486.737 265.557L469.047 261.323C469.047 261.323 468.645 256.684 468.463 253.177L468.391 251.761C470.135 250.073 471.628 247.793 472.67 245.132C473.879 244.889 476.078 244.008 477.153 240.847C478.421 237.109 475.417 237.774 474.376 238.102C475.332 236.829 475.567 233.027 475.345 232.318C475.103 231.547 479.437 227.863 477.471 225.901C475.505 223.941 463.868 222.434 457.738 226.591C452.728 229.988 453.269 233.831 453.633 235.123C453.65 235.18 453.68 235.233 453.72 235.276C453.761 235.32 453.811 235.353 453.867 235.373C453.789 235.598 453.716 235.828 453.646 236.062C453.048 235.674 449.888 233.828 449.842 238.03C449.806 241.317 451.651 242.606 452.732 243.083C452.842 246.031 453.587 248.675 454.825 250.708L452.788 255.196L450.614 259.551L449.764 259.469L421.933 255.187L392.4 234.134L391.698 234.818L387.137 231.158C387.137 231.158 389.755 218.83 381.854 216.263C373.952 213.697 382.441 225.964 380.563 226.168C378.684 226.373 378.202 222.181 375.736 223.919C373.59 225.431 383.667 237.068 386.322 240.064L385.457 240.908L412.647 266.243L432.905 276.148C434.089 276.727 434.78 277.951 434.679 279.288L431.327 324.127C431.725 324.253 432.209 324.392 432.761 324.538L432.654 326.6L429.659 384.107L443.683 415.636L441.365 439.06L442.83 439.21C442.404 440.965 441.963 442.716 441.506 444.463C441.067 444.761 440.694 445.146 440.409 445.594C440.124 446.042 439.934 446.543 439.85 447.067C439.605 448.716 439.295 450.355 438.923 451.981C438.101 455.507 437.724 465.133 446.436 464.865C455.147 464.594 453.196 458.551 451.995 456.198C450.799 453.848 455.032 447.825 452.132 444.967L452.159 440.173L453.557 440.317L453.934 438.687L454.492 439.912L456.565 438.606C457.252 440.247 457.963 441.878 458.696 443.499C457.999 443.82 457.492 444.013 457.354 444.026C457.354 444.026 456.132 445.26 459.308 447.924C462.486 450.588 460.669 457.412 459.675 460.071C458.682 462.73 460.063 467.122 466.915 463.368C472.844 460.119 473.715 440.676 473.843 435.502C473.862 434.726 473.318 434.092 472.549 433.977C471.488 433.824 470.417 433.755 469.345 433.771C467.555 433.792 466.927 434.504 466.376 435.764L465.182 433.173L465.765 432.807L459.522 414.442L478.061 333.95L479.487 327.769C479.788 327.583 480.051 327.38 480.267 327.157C480.291 327.168 480.312 327.18 480.336 327.193C482.408 328.126 486.33 328.359 487.983 327.153C490.561 325.265 494.03 318.472 494.03 318.472L494.122 318.38L496.737 315.762C495.265 314.513 492.581 312.318 491.196 311.187C490.933 311.523 490.685 311.848 490.445 312.161C489.121 313.886 488.171 315.19 487.795 315.577C487.079 316.312 483.001 317.502 480.867 318.665C481.463 306.58 485.612 287.02 485.612 287.02L502.161 292.486L490.315 310.464C490.315 310.464 497.389 316.232 497.753 316.648C497.79 316.691 511.316 302.018 518.745 293.954C521.753 290.688 521.575 285.825 518.398 283.127L518.389 283.121ZM484.094 320.624C484.904 322.063 482.816 322.544 480.882 323.789C480.801 322.716 480.773 321.64 480.798 320.564C481.908 320.331 483.374 319.346 484.096 320.624H484.094Z" fill="#003889"/>
</g>
<path d="M454.832 436.052C455.02 436.382 459.888 446.797 460.242 446.292C460.597 445.787 467.425 439.198 467.425 439.198L462.303 429.384L454.834 436.052H454.832ZM442.557 438.273C442.602 438.597 441.225 445.783 441.225 445.783L452.182 446.914L451.654 438.299L442.557 438.273Z" fill="#362299"/>
<path d="M464.779 432.7L454.065 439.865L453.427 438.632L453.163 440.275L440.974 439.018L441.698 415.427L425.648 383.693L424.75 325.781L424.689 321.863L448.258 324.644L471.652 324.915L470.333 333.147L457.343 414.213L464.779 432.7Z" fill="url(#paint3_linear_2_42)"/>
<path d="M447.466 347.241L443.668 384.063L446.024 390.573L447.466 347.241ZM471.652 324.916L470.333 333.147C457.773 337.211 430.889 328.003 424.75 325.781L424.69 321.862L448.259 324.642L471.652 324.914V324.916Z" fill="#362299"/>
<path d="M456.494 260.029L474.346 264.279C474.346 264.279 495.634 272.728 506.963 281.942C510.299 284.657 510.804 289.554 508.037 292.844C501.203 300.971 488.76 315.754 488.721 315.711C488.332 315.292 480.919 309.489 480.919 309.489L491.469 291.377L474.668 285.886C474.668 285.886 470.611 314.399 472.647 324.011C474.683 333.62 431.603 325.904 423.268 323.292L423.576 278.139C423.58 277.479 423.396 276.832 423.047 276.273C422.698 275.713 422.197 275.265 421.602 274.979L400.816 265.02L372.111 239.527L378.552 232.703L409.296 253.883L437.222 258.174L456.496 260.029H456.494ZM457.184 444.005C457.72 443.954 463.698 441.15 464.738 438.285C465.778 435.417 465.635 433.704 468.4 433.67C469.469 433.653 470.537 433.722 471.594 433.876C471.968 433.929 472.312 434.112 472.566 434.392C472.819 434.672 472.967 435.032 472.983 435.41C473.207 440.62 473.651 460.198 467.982 463.475C461.43 467.26 459.763 462.838 460.57 460.16C461.377 457.481 462.724 450.609 459.39 447.929C456.054 445.248 457.186 444.005 457.186 444.005H457.184ZM440.009 447.083C440.065 446.385 440.323 445.718 440.751 445.163C441.179 444.609 441.759 444.191 442.421 443.961C444.886 443.099 450.035 443.081 452.047 444.941C455.151 447.811 451.335 453.896 452.685 456.266C454.035 458.636 456.38 464.72 447.748 464.997C439.115 465.275 438.84 455.58 439.42 452.029C439.713 450.235 439.897 448.427 440.009 447.081V447.083Z" fill="#6A4DFF"/>
<path d="M378.631 233.96L373.121 229.712C373.121 229.712 374.891 217.296 366.872 214.717C358.854 212.138 368.111 224.485 366.256 224.692C364.402 224.898 363.643 220.678 361.31 222.429C358.977 224.181 373.583 239.389 373.583 239.389L378.631 233.962V233.96ZM487.651 314.821L485.231 317.459L485.146 317.552C485.146 317.552 482.159 324.395 479.726 326.298C478.165 327.513 474.259 327.283 472.137 326.344C470.949 325.82 470.324 325.067 471.005 324.221C471.422 323.695 471.931 323.277 472.451 322.923C474.288 321.665 476.333 321.181 475.432 319.73C474.627 318.443 473.237 319.44 472.149 319.672C471.668 319.776 471.238 319.725 470.95 319.256C470.66 318.793 471.186 318.279 472.085 317.76C474.124 316.588 478.098 315.384 478.761 314.644C479.109 314.253 479.963 312.94 481.162 311.202C481.38 310.886 481.604 310.559 481.844 310.221C483.294 311.358 486.108 313.567 487.653 314.823L487.651 314.821ZM456.494 260.029C456.494 260.029 454.253 270.158 445.722 269.15C437.191 268.141 438.068 258.255 438.068 258.255L439.934 253.868L442.357 247.503L455.027 248.809C455.02 248.871 455.165 250.138 455.365 251.827C455.782 255.359 456.494 260.029 456.494 260.029Z" fill="#FDC8AA"/>
<path d="M455.365 251.827C453.08 254.563 446.996 260.265 439.934 253.868L442.357 247.502L455.027 248.809C455.02 248.87 455.165 250.137 455.365 251.827Z" fill="#EFA37D"/>
<path d="M459.919 239.282C459.048 247.733 453.674 254.105 447.916 253.512C442.158 252.917 438.197 245.585 439.069 237.132C439.941 228.678 445.048 224.888 450.806 225.482C456.565 226.076 460.791 230.83 459.919 239.282Z" fill="#FDC8AA"/>
<path d="M459.888 236.76C459.888 236.76 464.372 234.882 463.162 239.403C461.952 243.923 458.167 243.817 458.167 243.817L459.888 236.758V236.76Z" fill="#FDC8AA"/>
<path d="M460.294 238.915C460.294 238.915 461.227 237.982 461.767 238.498C462.307 239.014 461.176 241.471 460.722 241.689C460.269 241.908 461.787 239.386 461.246 239.154C460.702 238.919 460.294 238.915 460.294 238.915Z" fill="#EFA37D"/>
<path d="M439.597 234.666C439.597 234.666 435.589 231.912 435.851 236.586C436.113 241.261 439.841 241.927 439.841 241.927L439.597 234.665L439.597 234.666Z" fill="#FDC8AA"/>
<path d="M438.759 236.693C438.759 236.693 438.036 235.59 437.402 235.985C436.769 236.38 437.373 239.015 437.773 239.322C438.172 239.629 437.201 236.85 437.779 236.733C438.359 236.615 438.759 236.693 438.759 236.693Z" fill="#EFA37D"/>
<path d="M440.003 233.886C439.95 233.914 439.893 233.931 439.833 233.935C439.774 233.939 439.714 233.929 439.659 233.908C439.603 233.886 439.553 233.852 439.512 233.809C439.471 233.766 439.44 233.714 439.421 233.658C438.97 232.357 438.175 228.486 442.92 225.062C448.726 220.872 460.385 222.382 462.468 224.355C464.552 226.328 460.5 230.04 460.791 230.818C461.081 231.596 461.086 236.077 459.967 236.929C459.967 236.929 452.102 236.645 448.969 233.468C446.314 230.77 441.421 233.116 440.001 233.887L440.003 233.886Z" fill="#1F3A6F"/>
<path d="M441.698 415.427L453.427 438.632L453.163 440.275L441.409 424.885L441.698 415.427Z" fill="#362299"/>
<path d="M487.651 314.822L485.231 317.46C484.083 315.672 482.056 312.53 481.16 311.202C481.377 310.886 481.602 310.559 481.842 310.222C483.292 311.358 486.105 313.567 487.651 314.823V314.822Z" fill="#EFA37D"/>
<g style="mix-blend-mode:multiply" opacity="0.18">
<path d="M382.312 134.748L381.52 117.653C381.496 117.135 381.37 116.627 381.15 116.158C380.929 115.689 380.619 115.268 380.236 114.919C379.852 114.57 379.404 114.299 378.917 114.124C378.429 113.948 377.912 113.87 377.394 113.894L165.134 123.752C164.088 123.801 163.105 124.263 162.4 125.037C161.696 125.811 161.327 126.832 161.375 127.878L162.169 144.973C162.218 146.019 162.68 147.002 163.454 147.707C164.227 148.412 165.249 148.781 166.295 148.732L378.555 138.874C379.601 138.824 380.584 138.362 381.289 137.589C381.994 136.815 382.362 135.793 382.314 134.748H382.312Z" fill="#003889"/>
</g>
<path d="M372.962 130.151L161.306 148.946C160.789 148.992 160.269 148.936 159.775 148.781C159.28 148.626 158.821 148.375 158.424 148.042C158.026 147.709 157.698 147.302 157.459 146.842C157.219 146.383 157.072 145.881 157.026 145.364L155.512 128.317C155.466 127.801 155.523 127.281 155.678 126.786C155.833 126.292 156.084 125.833 156.417 125.435C156.749 125.038 157.157 124.71 157.616 124.47C158.076 124.23 158.578 124.083 159.094 124.037L370.75 105.242C371.266 105.196 371.786 105.252 372.281 105.407C372.775 105.562 373.234 105.813 373.632 106.146C374.029 106.478 374.357 106.886 374.597 107.345C374.837 107.805 374.984 108.307 375.03 108.823L376.543 125.871C376.589 126.387 376.533 126.908 376.378 127.402C376.223 127.896 375.972 128.355 375.639 128.753C375.307 129.15 374.899 129.478 374.44 129.718C373.981 129.958 373.479 130.105 372.962 130.151Z" fill="url(#paint4_linear_2_42)"/>
<path d="M173.588 130.562L173.587 130.562C171.856 130.697 170.563 132.209 170.698 133.939L170.698 133.94C170.833 135.67 172.345 136.964 174.075 136.829L174.076 136.829C175.807 136.694 177.1 135.182 176.965 133.451L176.965 133.45C176.83 131.72 175.318 130.427 173.588 130.562Z" fill="#F16C7A"/>
<path d="M183.822 129.707L183.821 129.707C182.091 129.842 180.797 131.354 180.932 133.085L180.932 133.086C181.067 134.816 182.579 136.109 184.31 135.974L184.311 135.974C186.041 135.839 187.334 134.327 187.199 132.597L187.199 132.596C187.064 130.866 185.552 129.572 183.822 129.707Z" fill="#49C3E8"/>
<path d="M194.058 128.912L194.057 128.912C192.327 129.047 191.033 130.559 191.168 132.289L191.169 132.29C191.303 134.02 192.816 135.314 194.546 135.179L194.547 135.179C196.277 135.044 197.57 133.531 197.436 131.801L197.435 131.8C197.3 130.07 195.788 128.777 194.058 128.912Z" fill="#FFD160"/>
<g filter="url(#filter1_d_2_42)">
<path d="M144.903 193.661C144.903 173.272 128.375 156.744 107.987 156.744C87.5979 156.744 71.0696 173.272 71.0696 193.661C71.0696 214.05 87.5979 230.578 107.987 230.578C128.375 230.578 144.903 214.05 144.903 193.661Z" fill="url(#paint5_linear_2_42)"/>
<path d="M144.442 193.661C144.442 173.527 128.12 157.205 107.987 157.205C87.8527 157.205 71.5311 173.527 71.5311 193.661C71.5311 213.795 87.8527 230.116 107.987 230.116C128.12 230.116 144.442 213.795 144.442 193.661Z" stroke="white" stroke-width="0.922923"/>
</g>
<mask id="mask0_2_42" style="mask-type:luminance" maskUnits="userSpaceOnUse" x="84" y="169" width="50" height="50">
<path d="M84.6061 169.049H133.828V218.272H84.6061V169.049Z" fill="white"/>
</mask>
<g mask="url(#mask0_2_42)">
<path d="M100.816 205.07C100.926 205.56 101.182 206.005 101.552 206.344C101.921 206.684 102.385 206.903 102.882 206.972C103.38 207.041 103.886 206.956 104.333 206.729C104.781 206.502 105.148 206.143 105.387 205.701L109.673 199.358L119.736 209.422C120.147 209.832 120.704 210.062 121.284 210.063C121.864 210.063 122.421 209.832 122.832 209.422L124.978 207.275C125.388 206.864 125.619 206.308 125.62 205.727C125.62 205.44 125.564 205.155 125.454 204.889C125.343 204.624 125.182 204.383 124.978 204.18L114.915 194.116L121.3 189.829C121.63 189.651 121.916 189.4 122.135 189.095C122.353 188.79 122.499 188.439 122.561 188.069C122.623 187.698 122.6 187.319 122.492 186.959C122.385 186.599 122.196 186.269 121.941 185.993C121.601 185.625 121.156 185.369 120.666 185.26L92.8099 177.253L100.816 205.07Z" stroke="white" stroke-width="2.76877" stroke-linecap="round" stroke-linejoin="round"/>
</g>
</g>
</g>
<defs>
<filter id="filter0_f_2_42" x="0.0425034" y="1.35073" width="514.305" height="576.68" filterUnits="userSpaceOnUse" color-interpolation-filters="sRGB">
<feFlood flood-opacity="0" result="BackgroundImageFix"/>
<feBlend mode="normal" in="SourceGraphic" in2="BackgroundImageFix" result="shape"/>
<feGaussianBlur stdDeviation="46.1462" result="effect1_foregroundBlur_2_42"/>
</filter>
<filter id="filter1_d_2_42" x="24.9234" y="127.21" width="166.126" height="166.126" filterUnits="userSpaceOnUse" color-interpolation-filters="sRGB">
<feFlood flood-opacity="0" result="BackgroundImageFix"/>
<feColorMatrix in="SourceAlpha" type="matrix" values="0 0 0 0 0 0 0 0 0 0 0 0 0 0 0 0 0 0 127 0" result="hardAlpha"/>
<feOffset dy="16.6126"/>
<feGaussianBlur stdDeviation="23.0731"/>
<feComposite in2="hardAlpha" operator="out"/>
<feColorMatrix type="matrix" values="0 0 0 0 0.0666667 0 0 0 0 0.0705882 0 0 0 0 0.109804 0 0 0 0.3 0"/>
<feBlend mode="normal" in2="BackgroundImageFix" result="effect1_dropShadow_2_42"/>
<feBlend mode="normal" in="SourceGraphic" in2="effect1_dropShadow_2_42" result="shape"/>
</filter>
<linearGradient id="paint0_linear_2_42" x1="296.155" y1="-121.191" x2="296.155" y2="497.694" gradientUnits="userSpaceOnUse">
<stop stop-color="#ECF3FE"/>
<stop offset="0.339" stop-color="#ECF3FE" stop-opacity="0.708"/>
<stop offset="1" stop-color="#ECF3FE" stop-opacity="0.31"/>
</linearGradient>
<linearGradient id="paint1_linear_2_42" x1="159.256" y1="131.561" x2="414.305" y2="369.726" gradientUnits="userSpaceOnUse">
<stop stop-color="#00E3F2"/>
<stop offset="0.287" stop-color="#0000F2"/>
<stop offset="0.641" stop-color="#F87D7D"/>
<stop offset="1" stop-color="#FF2828"/>
</linearGradient>
<linearGradient id="paint2_linear_2_42" x1="473.577" y1="-59.8975" x2="212.665" y2="531.929" gradientUnits="userSpaceOnUse">
<stop stop-color="white"/>
<stop offset="1" stop-color="white"/>
</linearGradient>
<linearGradient id="paint3_linear_2_42" x1="443.931" y1="333.484" x2="438.394" y2="438.752" gradientUnits="userSpaceOnUse">
<stop stop-color="#5200FF"/>
<stop offset="1" stop-color="#E4DFFF"/>
</linearGradient>
<linearGradient id="paint4_linear_2_42" x1="492.306" y1="49.9397" x2="105.208" y2="137.797" gradientUnits="userSpaceOnUse">
<stop stop-color="#4B4D5E"/>
<stop offset="1" stop-color="#11121C"/>
</linearGradient>
<linearGradient id="paint5_linear_2_42" x1="107.987" y1="156.744" x2="107.987" y2="230.578" gradientUnits="userSpaceOnUse">
<stop stop-color="#A18EFF"/>
<stop offset="1" stop-color="#6A4DFF"/>
</linearGradient>
<clipPath id="clip0_2_42">
<rect width="527" height="577.75" fill="white" transform="translate(0 0.77002)"/>
</clipPath>
<clipPath id="clip1_2_42">
<rect width="526.989" height="577.75" fill="white" transform="translate(0.00537109 0.77002)"/>
</clipPath>
</defs>
</svg>
