<svg width="165" height="52" viewBox="0 0 165 52" fill="none" xmlns="http://www.w3.org/2000/svg">
<g clip-path="url(#clip0_2_519)">
<g clip-path="url(#clip1_2_519)">
<g clip-path="url(#clip2_2_519)">
<path d="M14.0254 27.4099C13.4218 27.4103 12.8274 27.2612 12.2955 26.9759C11.7636 26.6906 11.3106 26.2779 10.977 25.7748L11.8483 25.1969C12.0866 25.5564 12.4101 25.8512 12.7901 26.0552C13.1701 26.2591 13.5946 26.3659 14.0258 26.3659C14.4571 26.3659 14.8816 26.2591 15.2616 26.0552C15.6416 25.8512 15.9651 25.5564 16.2034 25.1969L17.0738 25.7748C16.7403 26.278 16.2873 26.6907 15.7554 26.976C15.2234 27.2613 14.629 27.4104 14.0254 27.4099ZM16.1161 21.6615C15.9095 21.6616 15.7076 21.7231 15.5359 21.8379C15.3642 21.9528 15.2304 22.116 15.1515 22.3069C15.0725 22.4978 15.0519 22.7079 15.0922 22.9105C15.1325 23.1131 15.232 23.2992 15.3781 23.4453C15.5242 23.5914 15.7103 23.6909 15.9129 23.7312C16.1156 23.7715 16.3256 23.7509 16.5165 23.6719C16.7074 23.593 16.8706 23.4592 16.9855 23.2875C17.1004 23.1158 17.1618 22.9139 17.1619 22.7073C17.1632 22.5696 17.137 22.433 17.0849 22.3055C17.0328 22.1781 16.9558 22.0623 16.8585 21.9649C16.7611 21.8676 16.6453 21.7906 16.5179 21.7385C16.3904 21.6864 16.2538 21.6602 16.1161 21.6615ZM11.9356 21.6615C11.7289 21.6615 11.5269 21.7227 11.3551 21.8375C11.1833 21.9523 11.0494 22.1154 10.9702 22.3063C10.8911 22.4972 10.8704 22.7073 10.9106 22.9099C10.9509 23.1126 11.0503 23.2988 11.1964 23.445C11.3424 23.5911 11.5285 23.6907 11.7312 23.7311C11.9338 23.7716 12.1439 23.751 12.3348 23.672C12.5258 23.5931 12.689 23.4593 12.804 23.2876C12.9189 23.1158 12.9803 22.9139 12.9805 22.7073C12.9821 22.5696 12.9562 22.4329 12.9043 22.3053C12.8524 22.1778 12.7755 22.0619 12.6781 21.9644C12.5808 21.867 12.4649 21.79 12.3374 21.738C12.2099 21.686 12.0733 21.6599 11.9356 21.6615Z" fill="white"/>
<path d="M14.9333 33.1592L14.0263 32.6363L16.117 28.9786H19.2527C19.39 28.9787 19.526 28.9517 19.6529 28.8992C19.7798 28.8467 19.8951 28.7696 19.9921 28.6725C20.0892 28.5753 20.1661 28.46 20.2186 28.3331C20.271 28.2061 20.2979 28.0701 20.2976 27.9328V20.6165C20.298 20.4792 20.2712 20.3432 20.2188 20.2163C20.1664 20.0893 20.0894 19.974 19.9923 19.8769C19.8952 19.7798 19.7799 19.7028 19.653 19.6505C19.526 19.5981 19.39 19.5713 19.2527 19.5716H8.79994C8.66262 19.5713 8.52659 19.5981 8.39965 19.6505C8.27272 19.7028 8.15739 19.7798 8.06029 19.8769C7.96319 19.974 7.88624 20.0893 7.83385 20.2163C7.78146 20.3432 7.75467 20.4792 7.75501 20.6165V27.9328C7.75467 28.0701 7.78145 28.2062 7.83383 28.3332C7.88621 28.4602 7.96315 28.5756 8.06024 28.6727C8.15733 28.7699 8.27265 28.8469 8.39959 28.8994C8.52653 28.9519 8.66258 28.9788 8.79994 28.9786H13.5034V30.0235H8.79994C8.52536 30.0237 8.25343 29.9698 7.99971 29.8648C7.746 29.7598 7.51549 29.6058 7.32137 29.4116C7.12725 29.2174 6.97334 28.9868 6.86845 28.7331C6.76355 28.4793 6.70974 28.2074 6.71008 27.9328V20.6165C6.70997 20.342 6.76394 20.0702 6.86891 19.8165C6.97389 19.5629 7.12781 19.3324 7.32188 19.1382C7.51595 18.9441 7.74637 18.7901 7.99998 18.685C8.25359 18.5799 8.52542 18.5258 8.79994 18.5258H19.2527C19.5272 18.5258 19.799 18.5799 20.0526 18.685C20.3063 18.7901 20.5367 18.9441 20.7308 19.1382C20.9248 19.3324 21.0787 19.5629 21.1837 19.8165C21.2887 20.0702 21.3427 20.342 21.3425 20.6165V27.9328C21.3423 28.487 21.1221 29.0186 20.7302 29.4106C20.3384 29.8026 19.807 30.023 19.2527 30.0235H16.7255L14.9333 33.1592Z" fill="white"/>
<mask id="mask0_2_519" style="mask-type:luminance" maskUnits="userSpaceOnUse" x="3" y="9" width="33" height="34">
<path d="M3.27588 9.11887H35.1457V42.2911H3.27588V9.11887Z" fill="white"/>
</mask>
<g mask="url(#mask0_2_519)">
<path d="M35.0025 25.5793C34.1907 33.5354 29.9857 42.2196 22.6991 42.3034C15.4126 42.3863 8.25696 36.4135 5.13964 30.9069C2.02145 25.4003 3.22787 20.4786 5.21122 18.0064C7.1937 15.5333 11.3271 10.8395 21.3495 9.27425C25.0159 8.72429 29.4479 9.56058 31.9568 12.4632C34.8114 15.7367 35.4678 21.3629 35.0025 25.5793Z" fill="#635CFF"/>
<path d="M25.7754 20.3294L14.1188 20.2927C13.9243 20.292 13.7315 20.3296 13.5515 20.4034C13.3715 20.4773 13.2078 20.5858 13.0698 20.7229C12.9318 20.8599 12.8221 21.0229 12.747 21.2023C12.6719 21.3818 12.6329 21.5743 12.6322 21.7689L12.6034 30.9436C12.6025 31.3364 12.7575 31.7136 13.0345 31.9921C13.3114 32.2707 13.6876 32.428 14.0804 32.4294L25.7387 32.466C26.5567 32.4687 27.2228 31.807 27.2245 30.989L27.2533 21.8151C27.2545 21.4224 27.0996 21.0452 26.8228 20.7666C26.546 20.488 26.1699 20.3307 25.7772 20.3294H25.7754Z" fill="#635CFF"/>
<path d="M19.9031 29.498C19.2249 29.497 18.557 29.3329 17.9555 29.0196C17.3607 28.6949 16.8527 28.2321 16.4741 27.67L17.4536 27.0127C17.7233 27.4186 18.0882 27.7503 18.5168 27.9808C18.9428 28.21 19.4194 28.3292 19.9031 28.3274C20.3862 28.3261 20.8617 28.2071 21.2885 27.9808C21.7172 27.751 22.0825 27.4187 22.3517 27.0136L23.3312 27.67C22.9605 28.2437 22.4564 28.719 21.862 29.0554C21.2541 29.3581 20.5821 29.5099 19.9031 29.498ZM22.2575 23.0835C22.0245 23.0815 21.796 23.1476 21.6001 23.2738C21.4089 23.4048 21.2597 23.5863 21.1698 23.8002C21.0748 24.014 21.0498 24.2523 21.0982 24.4811C21.1436 24.7116 21.2553 24.9228 21.4212 25.0904C21.5862 25.2484 21.7939 25.3567 22.0183 25.4003C22.2461 25.4475 22.4827 25.4265 22.6992 25.341C22.9122 25.2511 23.0946 25.1018 23.2247 24.9106C23.3509 24.7231 23.4215 24.5037 23.4281 24.2777C23.4299 24.1224 23.4015 23.9682 23.3443 23.8238C23.2881 23.6543 23.1892 23.5022 23.0571 23.3821C22.9586 23.26 22.8369 23.1585 22.6992 23.0835C22.5534 23.0542 22.4032 23.0542 22.2575 23.0835ZM17.5496 23.0835C17.3208 23.0839 17.0969 23.15 16.9045 23.2738C16.7133 23.4048 16.564 23.5863 16.475 23.8002C16.3798 24.0139 16.3544 24.2522 16.4025 24.4811C16.4479 24.7116 16.5597 24.9228 16.7255 25.0904C16.8914 25.2484 17.0983 25.3567 17.3226 25.4003C17.5505 25.4475 17.7871 25.4265 18.0035 25.341C18.2165 25.2511 18.399 25.1018 18.5291 24.9106C18.6553 24.7231 18.7258 24.5037 18.7325 24.2777C18.7288 24.1229 18.7006 23.9697 18.6487 23.8238C18.5869 23.6804 18.4976 23.5505 18.3859 23.4414C18.2865 23.2953 18.1559 23.1731 18.0035 23.0835C17.8536 23.0545 17.6995 23.0545 17.5496 23.0835Z" fill="white"/>
<path d="M20.9183 35.9605L19.9031 35.3756L22.2923 31.2657H25.8042C25.9605 31.264 26.115 31.2308 26.2582 31.1697C26.4005 31.1121 26.5305 31.0265 26.6405 30.9192C26.7479 30.8092 26.8326 30.6791 26.8911 30.5368C26.9524 30.3932 26.985 30.239 26.9871 30.0829V21.8885C26.9835 21.7364 26.9509 21.5865 26.8911 21.4467C26.8357 21.296 26.7505 21.1579 26.6405 21.0408C26.5305 20.9331 26.4006 20.8478 26.2582 20.7894C26.1038 20.7234 25.9372 20.6907 25.7693 20.6934H14.0377C13.8816 20.6954 13.7273 20.7281 13.5838 20.7894C13.4413 20.8478 13.3115 20.9331 13.2014 21.0408C13.094 21.1508 13.0093 21.28 12.95 21.4232C12.8906 21.5628 12.8583 21.713 12.854 21.8649V30.0829C12.8566 30.2391 12.8889 30.3936 12.95 30.5368C13.0085 30.6791 13.094 30.8092 13.2014 30.9192C13.3114 31.0265 13.4406 31.1112 13.5838 31.1706C13.7269 31.2317 13.8806 31.264 14.0377 31.2657H19.3173V32.4599H14.0377C13.7284 32.463 13.4217 32.4031 13.1363 32.284C12.8508 32.1648 12.5926 31.9889 12.3773 31.7668C12.1545 31.5556 11.9792 31.2994 11.8632 31.0152C11.7449 30.7271 11.6841 30.4187 11.6842 30.1073V21.8885C11.686 21.5812 11.7462 21.2774 11.8632 20.9928C11.9836 20.7065 12.1582 20.4472 12.3773 20.2281C12.5938 20.0142 12.8487 19.844 13.1298 19.7261C13.4144 19.5917 13.7234 19.5149 14.0377 19.4992H25.7676C26.0792 19.4992 26.3874 19.5603 26.6755 19.679C26.9574 19.7942 27.2132 19.9653 27.4279 20.1801C27.6471 20.3992 27.8216 20.6593 27.9421 20.9448C28.0582 21.2294 28.1193 21.5332 28.1211 21.8404V30.0593C28.1211 30.371 28.06 30.6791 27.9421 30.9672C27.8261 31.2517 27.6508 31.5082 27.4279 31.7197C27.2164 31.9423 26.9599 32.1173 26.6755 32.233C26.3874 32.3517 26.0792 32.4128 25.7676 32.4128H22.9383L20.9192 35.9605H20.9183Z" fill="white"/>
</g>
<path d="M57.1529 21.0399V22.936H49.8524C47.6394 22.936 47.3697 23.9181 47.3697 25.705C47.3697 27.4919 47.6403 28.46 49.8524 28.46H57.1529V30.3701H49.8524C46.5325 30.3701 45.3994 28.7743 45.3994 25.705C45.3994 22.6357 46.5325 21.0399 49.8524 21.0399H57.1529ZM70.2131 30.3701H68.2839V26.564H60.5364V30.3701H58.6072V21.0399H60.5364V24.832H68.2822V21.0399H70.2114V30.3701H70.2131ZM80.7715 22.8819L84.5645 30.3701H82.486L81.3119 28.0655H74.5116L73.3366 30.3701H71.272L75.0502 22.8819C75.6307 21.7226 76.3326 20.9037 77.9117 20.9037C79.49 20.9037 80.1788 21.7226 80.7724 22.8819H80.7715ZM80.4215 26.3327L78.8694 23.2773C78.6668 22.8819 78.4111 22.6357 77.9117 22.6357C77.4124 22.6357 77.1558 22.8819 76.9532 23.2773L75.388 26.3327H80.4215ZM89.9341 30.3701H88.004V22.7998H83.4157V21.0399H94.5214V22.7998H89.9341V30.3701ZM111.64 21.0399H113.678L110.345 28.5823C109.63 30.1929 108.428 30.5062 107.578 30.5062C106.471 30.5062 105.46 29.9737 104.866 28.7464L104.178 27.3278L103.503 28.7464C102.909 29.9746 101.884 30.5062 100.791 30.5062C99.9407 30.5062 98.7396 30.192 98.0246 28.5831L94.6908 21.0408H96.7291L99.7513 27.8734C100.035 28.5019 100.318 28.6652 100.777 28.6652C101.276 28.6652 101.573 28.46 101.816 27.9555L103.152 25.1865L101.168 21.0399H103.111L104.178 23.2773L105.257 21.0399H107.2L105.217 25.1865L106.553 27.9555C106.795 28.46 107.093 28.6652 107.591 28.6652C108.05 28.6652 108.334 28.5011 108.617 27.8734L111.64 21.0399ZM122.108 22.8819L125.9 30.3701H123.821L122.647 28.0655H115.846L114.672 30.3701H112.607L116.385 22.8819C116.966 21.7226 117.668 20.9037 119.247 20.9037C120.825 20.9037 121.514 21.7226 122.108 22.8819ZM121.757 26.3327L120.205 23.2773C120.002 22.8819 119.746 22.6357 119.247 22.6357C118.748 22.6357 118.491 22.8819 118.288 23.2773L116.723 26.3327H121.757ZM126.946 30.3701V21.0399H134.962C137.229 21.0399 138.633 22.077 138.633 23.9451C138.633 25.2546 137.944 26.0594 136.744 26.4138C137.918 26.7962 138.43 27.56 138.43 28.5281V30.3701H136.433V28.4871C136.433 27.9694 136.149 27.3008 134.922 27.3008H128.876V30.3701H126.946ZM128.876 25.5688H135.11C136.298 25.5688 136.662 24.777 136.662 24.1634C136.662 23.5497 136.298 22.7588 135.11 22.7588H128.876V25.5688ZM140.172 30.3701V21.0399H147.755C151.061 21.0399 152.195 22.6357 152.195 25.705C152.195 28.7743 151.061 30.3701 147.755 30.3701H140.172ZM150.225 25.705C150.225 23.9181 149.955 22.936 147.755 22.936H142.101V28.46H147.755C149.955 28.46 150.225 27.4911 150.225 25.705ZM153.308 28.6242H161.513C162.646 28.6242 163.011 28.2689 163.011 27.7512C163.011 27.1235 162.457 26.8102 161.135 26.701L156.668 26.3457C154.59 26.1825 153.349 25.4318 153.349 23.7138C153.349 21.7357 154.994 21.0399 156.898 21.0399H164.401V22.7858H156.722C155.818 22.7858 155.305 23.032 155.305 23.6588C155.305 24.1773 155.656 24.4506 157.167 24.5728L161.419 24.9132C163.59 25.0913 164.994 25.7862 164.994 27.6691C164.994 29.2518 163.996 30.3701 161.392 30.3701H153.308V28.6242Z" fill="#21232B"/>
</g>
</g>
</g>
<defs>
<clipPath id="clip0_2_519">
<rect width="165" height="38.41" fill="white" transform="translate(0 6.5)"/>
</clipPath>
<clipPath id="clip1_2_519">
<rect width="165" height="38.41" fill="white" transform="translate(0 6.5)"/>
</clipPath>
<clipPath id="clip2_2_519">
<rect width="164.988" height="38.41" fill="white" transform="translate(0.0057373 6.5)"/>
</clipPath>
</defs>
</svg>
