<svg width="135" height="32" viewBox="0 0 135 32" fill="none" xmlns="http://www.w3.org/2000/svg">
<g clip-path="url(#clip0_2_379)">
<g clip-path="url(#clip1_2_379)">
<g clip-path="url(#clip2_2_379)">
<path d="M11.4868 17.1047C10.993 17.105 10.5068 16.9831 10.0717 16.7497C9.63656 16.5163 9.26602 16.1787 8.99318 15.7672L9.70584 15.2945C9.90078 15.5885 10.1655 15.8297 10.4763 15.9965C10.7871 16.1634 11.1344 16.2507 11.4871 16.2507C11.8399 16.2507 12.1872 16.1634 12.498 15.9965C12.8088 15.8297 13.0735 15.5885 13.2684 15.2945L13.9804 15.7672C13.7076 16.1788 13.3371 16.5164 12.9019 16.7498C12.4668 16.9832 11.9806 17.1051 11.4868 17.1047ZM13.197 12.4024C13.028 12.4025 12.8629 12.4528 12.7224 12.5467C12.582 12.6407 12.4725 12.7742 12.4079 12.9304C12.3433 13.0865 12.3264 13.2584 12.3594 13.4241C12.3924 13.5898 12.4738 13.7421 12.5933 13.8616C12.7128 13.9811 12.8651 14.0625 13.0308 14.0955C13.1966 14.1285 13.3684 14.1116 13.5245 14.047C13.6807 13.9824 13.8142 13.8729 13.9082 13.7325C14.0021 13.592 14.0524 13.4269 14.0525 13.2579C14.0536 13.1452 14.0322 13.0335 13.9895 12.9293C13.9469 12.825 13.8839 12.7303 13.8043 12.6506C13.7246 12.571 13.6299 12.508 13.5256 12.4654C13.4214 12.4228 13.3097 12.4013 13.197 12.4024ZM9.77725 12.4024C9.60823 12.4024 9.44299 12.4525 9.30244 12.5464C9.16189 12.6403 9.05234 12.7737 8.98762 12.9299C8.9229 13.086 8.90593 13.2579 8.93886 13.4237C8.97178 13.5894 9.05312 13.7418 9.17259 13.8613C9.29206 13.9809 9.4443 14.0624 9.61006 14.0954C9.77582 14.1285 9.94766 14.1117 10.1039 14.0471C10.2601 13.9825 10.3936 13.873 10.4876 13.7326C10.5816 13.5921 10.6319 13.4269 10.632 13.2579C10.6334 13.1452 10.6122 13.0334 10.5697 12.9291C10.5272 12.8247 10.4643 12.7299 10.3847 12.6502C10.3051 12.5705 10.2103 12.5076 10.106 12.465C10.0017 12.4224 9.88991 12.4012 9.77725 12.4024Z" fill="white"/>
<path d="M12.2294 21.8077L11.4875 21.38L13.1977 18.3879H15.7627C15.8751 18.388 15.9863 18.366 16.0901 18.323C16.1939 18.28 16.2882 18.217 16.3676 18.1375C16.447 18.0581 16.51 17.9637 16.5528 17.8599C16.5957 17.7561 16.6177 17.6448 16.6175 17.5324V11.5476C16.6178 11.4353 16.5959 11.324 16.553 11.2202C16.5102 11.1164 16.4472 11.022 16.3678 10.9426C16.2884 10.8632 16.194 10.8002 16.0902 10.7574C15.9864 10.7145 15.8751 10.6926 15.7627 10.6929H7.21222C7.09989 10.6926 6.98861 10.7145 6.88478 10.7574C6.78095 10.8002 6.68661 10.8632 6.60718 10.9426C6.52775 11.022 6.4648 11.1164 6.42194 11.2202C6.37909 11.324 6.35717 11.4353 6.35745 11.5476V17.5324C6.35717 17.6448 6.37908 17.7561 6.42193 17.86C6.46478 17.9639 6.52772 18.0583 6.60714 18.1377C6.68656 18.2172 6.78089 18.2802 6.88473 18.3232C6.98856 18.3661 7.09986 18.3881 7.21222 18.3879H11.0597V19.2427H7.21222C6.98761 19.2429 6.76516 19.1988 6.55762 19.1129C6.35008 19.027 6.16152 18.901 6.00273 18.7422C5.84393 18.5833 5.71803 18.3947 5.63223 18.1871C5.54643 17.9795 5.50241 17.7571 5.50269 17.5324V11.5476C5.50259 11.3231 5.54674 11.1007 5.63261 10.8932C5.71848 10.6857 5.84439 10.4972 6.00315 10.3384C6.1619 10.1795 6.35039 10.0536 6.55785 9.9676C6.7653 9.88164 6.98766 9.8374 7.21222 9.8374H15.7627C15.9873 9.8374 16.2097 9.88164 16.4171 9.9676C16.6246 10.0536 16.8131 10.1795 16.9718 10.3384C17.1306 10.4972 17.2565 10.6857 17.3424 10.8932C17.4282 11.1007 17.4724 11.3231 17.4723 11.5476V17.5324C17.4721 17.9859 17.2919 18.4206 16.9714 18.7413C16.6509 19.062 16.2161 19.2423 15.7627 19.2427H13.6955L12.2294 21.8077Z" fill="white"/>
<mask id="mask0_2_379" style="mask-type:luminance" maskUnits="userSpaceOnUse" x="2" y="2" width="27" height="28">
<path d="M2.69336 2.14209H28.7634V29.2775H2.69336V2.14209Z" fill="white"/>
</mask>
<g mask="url(#mask0_2_379)">
<path d="M28.6463 15.6068C27.9822 22.115 24.5424 29.2188 18.5819 29.2873C12.6214 29.3551 6.768 24.4693 4.21798 19.9649C1.66725 15.4604 2.65412 11.4343 4.27654 9.41202C5.89824 7.389 9.27946 3.54933 17.4779 2.26897C20.4771 1.81909 24.1026 2.50319 26.1549 4.87754C28.4899 7.55538 29.0269 12.1577 28.6463 15.6068Z" fill="#635CFF"/>
<path d="M21.0984 11.3122L11.5632 11.2822C11.404 11.2817 11.2463 11.3125 11.0991 11.3728C10.9518 11.4332 10.8179 11.522 10.705 11.6341C10.5921 11.7463 10.5024 11.8795 10.4409 12.0263C10.3795 12.1732 10.3476 12.3306 10.3471 12.4898L10.3235 19.9949C10.3227 20.3162 10.4496 20.6247 10.6761 20.8526C10.9027 21.0805 11.2104 21.2091 11.5317 21.2102L21.0684 21.2402C21.7375 21.2424 22.2824 20.7011 22.2838 20.032L22.3074 12.5276C22.3083 12.2063 22.1816 11.8978 21.9552 11.6699C21.7288 11.442 21.4211 11.3134 21.0998 11.3122H21.0984Z" fill="#635CFF"/>
<path d="M16.2947 18.8125C15.7399 18.8117 15.1935 18.6775 14.7016 18.4212C14.215 18.1556 13.7994 17.7769 13.4897 17.3172L14.2909 16.7795C14.5116 17.1115 14.8101 17.3829 15.1607 17.5714C15.5092 17.7589 15.899 17.8564 16.2947 17.8549C16.6899 17.8538 17.0788 17.7565 17.4279 17.5714C17.7787 17.3834 18.0774 17.1116 18.2977 16.7802L19.0989 17.3172C18.7957 17.7864 18.3833 18.1753 17.8971 18.4504C17.3998 18.698 16.8501 18.8222 16.2947 18.8125ZM18.2206 13.5653C18.03 13.5637 17.8431 13.6178 17.6829 13.721C17.5265 13.8281 17.4044 13.9767 17.3308 14.1516C17.2532 14.3265 17.2327 14.5214 17.2723 14.7086C17.3094 14.8971 17.4008 15.0699 17.5365 15.207C17.6715 15.3363 17.8414 15.4248 18.0249 15.4605C18.2113 15.4991 18.4048 15.482 18.5819 15.412C18.7562 15.3384 18.9054 15.2163 19.0118 15.0599C19.1151 14.9066 19.1728 14.727 19.1782 14.5422C19.1797 14.4152 19.1564 14.289 19.1096 14.1709C19.0637 14.0323 18.9828 13.9078 18.8747 13.8096C18.7941 13.7097 18.6946 13.6267 18.5819 13.5653C18.4627 13.5414 18.3398 13.5414 18.2206 13.5653ZM14.3695 13.5653C14.1823 13.5657 13.9992 13.6197 13.8418 13.721C13.6854 13.8281 13.5633 13.9767 13.4905 14.1516C13.4126 14.3264 13.3918 14.5213 13.4312 14.7086C13.4683 14.8971 13.5597 15.0699 13.6954 15.207C13.8311 15.3363 14.0003 15.4248 14.1838 15.4605C14.3702 15.4991 14.5637 15.482 14.7408 15.412C14.9151 15.3384 15.0643 15.2163 15.1707 15.0599C15.274 14.9066 15.3317 14.727 15.3371 14.5422C15.3341 14.4156 15.311 14.2902 15.2685 14.1709C15.218 14.0536 15.145 13.9473 15.0536 13.8581C14.9723 13.7386 14.8654 13.6386 14.7408 13.5653C14.6182 13.5416 14.4921 13.5416 14.3695 13.5653Z" fill="white"/>
<path d="M17.1252 24.0989L16.2947 23.6205L18.2492 20.2585H21.122C21.2498 20.2571 21.3762 20.23 21.4933 20.18C21.6097 20.1329 21.7161 20.0629 21.8061 19.975C21.8939 19.8851 21.9632 19.7787 22.011 19.6623C22.0612 19.5448 22.0879 19.4187 22.0895 19.2909V12.5878C22.0866 12.4634 22.0599 12.3408 22.011 12.2264C21.9657 12.1031 21.896 11.9902 21.8061 11.8944C21.716 11.8063 21.6098 11.7365 21.4933 11.6887C21.367 11.6347 21.2307 11.608 21.0934 11.6102H11.4967C11.369 11.6119 11.2429 11.6386 11.1254 11.6887C11.0089 11.7365 10.9026 11.8063 10.8126 11.8944C10.7248 11.9844 10.6555 12.09 10.607 12.2072C10.5584 12.3214 10.532 12.4442 10.5284 12.5685V19.2909C10.5306 19.4188 10.557 19.5452 10.607 19.6623C10.6548 19.7787 10.7248 19.8851 10.8126 19.975C10.9026 20.0629 11.0083 20.1321 11.1254 20.1807C11.2425 20.2307 11.3682 20.2571 11.4967 20.2585H15.8155V21.2354H11.4967C11.2437 21.2379 10.9928 21.189 10.7594 21.0915C10.5259 20.994 10.3146 20.8501 10.1385 20.6684C9.95625 20.4957 9.81287 20.2861 9.71792 20.0536C9.62118 19.8179 9.57145 19.5657 9.57153 19.3109V12.5878C9.57296 12.3364 9.62223 12.0879 9.71792 11.8551C9.81647 11.6209 9.95928 11.4088 10.1385 11.2296C10.3156 11.0546 10.5241 10.9154 10.7541 10.819C10.9869 10.709 11.2396 10.6462 11.4967 10.6333H21.092C21.3469 10.6333 21.599 10.6833 21.8346 10.7804C22.0653 10.8747 22.2745 11.0146 22.4502 11.1903C22.6294 11.3695 22.7722 11.5823 22.8708 11.8158C22.9657 12.0486 23.0157 12.2971 23.0172 12.5485V19.2717C23.0172 19.5266 22.9672 19.7787 22.8708 20.0143C22.7758 20.247 22.6325 20.4568 22.4502 20.6299C22.2771 20.812 22.0673 20.9551 21.8346 21.0497C21.599 21.1469 21.3469 21.1968 21.092 21.1968H18.7776L17.1259 24.0989H17.1252Z" fill="white"/>
</g>
<path d="M46.7656 11.8941V13.4451H40.7937C38.9835 13.4451 38.7628 14.2485 38.7628 15.7102C38.7628 17.172 38.9842 17.9639 40.7937 17.9639H46.7656V19.5263H40.7937C38.078 19.5263 37.1511 18.221 37.1511 15.7102C37.1511 13.1995 38.078 11.8941 40.7937 11.8941H46.7656ZM57.4492 19.5263H55.871V16.4129H49.5335V19.5263H47.9553V11.8941H49.5335V14.9961H55.8696V11.8941H57.4477V19.5263H57.4492ZM66.0861 13.4008L69.1888 19.5263H67.4886L66.5281 17.6411H60.9653L60.0042 19.5263H58.3153L61.4059 13.4008C61.8808 12.4525 62.4549 11.7827 63.7467 11.7827C65.0378 11.7827 65.6012 12.4525 66.0868 13.4008H66.0861ZM65.7997 16.2236L64.5301 13.7243C64.3644 13.4008 64.1552 13.1995 63.7467 13.1995C63.3383 13.1995 63.1283 13.4008 62.9627 13.7243L61.6823 16.2236H65.7997ZM73.5812 19.5263H72.0023V13.3337H68.2491V11.8941H77.3337V13.3337H73.5812V19.5263ZM91.3371 11.8941H93.0037L90.2773 18.0639C89.6925 19.3814 88.7099 19.6377 88.0144 19.6377C87.1089 19.6377 86.2813 19.2021 85.7957 18.1981L85.233 17.0377L84.681 18.1981C84.1947 19.2028 83.3564 19.6377 82.4623 19.6377C81.7668 19.6377 80.7842 19.3806 80.1994 18.0646L77.4723 11.8948H79.1397L81.6119 17.484C81.8439 17.9982 82.0753 18.1317 82.4509 18.1317C82.8594 18.1317 83.1022 17.9639 83.3007 17.5511L84.3939 15.286L82.7708 11.8941H84.3604L85.233 13.7243L86.1156 11.8941H87.7052L86.0828 15.286L87.1753 17.5511C87.3738 17.9639 87.6174 18.1317 88.0251 18.1317C88.4007 18.1317 88.6328 17.9974 88.8642 17.484L91.3371 11.8941ZM99.8997 13.4008L103.002 19.5263H101.301L100.341 17.6411H94.7775L93.8171 19.5263H92.1283L95.2189 13.4008C95.6937 12.4525 96.2679 11.7827 97.5596 11.7827C98.8507 11.7827 99.4141 12.4525 99.8997 13.4008ZM99.6127 16.2236L98.343 13.7243C98.1773 13.4008 97.9681 13.1995 97.5596 13.1995C97.1512 13.1995 96.9412 13.4008 96.7756 13.7243L95.4952 16.2236H99.6127ZM103.858 19.5263V11.8941H110.415C112.269 11.8941 113.417 12.7425 113.417 14.2706C113.417 15.3417 112.854 16.0001 111.872 16.2901C112.833 16.6028 113.252 17.2277 113.252 18.0196V19.5263H111.618V17.986C111.618 17.5626 111.386 17.0156 110.382 17.0156H105.436V19.5263H103.858ZM105.436 15.5988H110.536C111.508 15.5988 111.806 14.9511 111.806 14.4491C111.806 13.9471 111.508 13.3002 110.536 13.3002H105.436V15.5988ZM114.676 19.5263V11.8941H120.88C123.584 11.8941 124.512 13.1995 124.512 15.7102C124.512 18.221 123.584 19.5263 120.88 19.5263H114.676ZM122.9 15.7102C122.9 14.2485 122.679 13.4451 120.88 13.4451H116.255V17.9639H120.88C122.679 17.9639 122.9 17.1712 122.9 15.7102ZM125.422 18.0981H132.134C133.061 18.0981 133.359 17.8075 133.359 17.384C133.359 16.8706 132.906 16.6143 131.825 16.525L128.171 16.2344C126.471 16.1008 125.456 15.4867 125.456 14.0814C125.456 12.4632 126.802 11.8941 128.358 11.8941H134.496V13.3223H128.215C127.475 13.3223 127.056 13.5237 127.056 14.0364C127.056 14.4606 127.343 14.6841 128.579 14.784L132.057 15.0625C133.833 15.2082 134.982 15.7766 134.982 17.3169C134.982 18.6116 134.165 19.5263 132.035 19.5263H125.422V18.0981Z" fill="#21232B"/>
</g>
</g>
</g>
<defs>
<clipPath id="clip0_2_379">
<rect width="135" height="31.42" fill="white"/>
</clipPath>
<clipPath id="clip1_2_379">
<rect width="135" height="31.42" fill="white"/>
</clipPath>
<clipPath id="clip2_2_379">
<rect width="134.963" height="31.42" fill="white" transform="translate(0.0184326)"/>
</clipPath>
</defs>
</svg>
