<svg width="13" height="19" viewBox="0 0 13 19" fill="none" xmlns="http://www.w3.org/2000/svg">
<g clip-path="url(#clip0_2_408)">
<g clip-path="url(#clip1_2_408)">
<g clip-path="url(#clip2_2_408)">
<path d="M6.30994 8.10986C5.91201 8.10976 5.53043 7.95159 5.24912 7.67015C4.96782 7.3887 4.80984 7.00704 4.80994 6.60911C4.81004 6.21119 4.96821 5.8296 5.24965 5.5483C5.5311 5.26699 5.91276 5.10901 6.31069 5.10911C6.50772 5.10916 6.70281 5.14802 6.88483 5.22347C7.06684 5.29891 7.23221 5.40947 7.3715 5.54883C7.51079 5.68819 7.62127 5.85361 7.69662 6.03567C7.77198 6.21772 7.81074 6.41283 7.81069 6.60986C7.81064 6.8069 7.77178 7.00199 7.69633 7.184C7.62089 7.36602 7.51033 7.53139 7.37097 7.67068C7.23161 7.80997 7.06619 7.92044 6.88413 7.9958C6.70208 8.07115 6.50697 8.10991 6.30994 8.10986ZM6.30994 4.35986C5.7132 4.35986 5.1409 4.59692 4.71895 5.01887C4.29699 5.44083 4.05994 6.01313 4.05994 6.60986C4.05994 7.2066 4.29699 7.7789 4.71895 8.20085C5.1409 8.62281 5.7132 8.85986 6.30994 8.85986C6.90667 8.85986 7.47897 8.62281 7.90093 8.20085C8.32288 7.7789 8.55994 7.2066 8.55994 6.60986C8.55994 6.01313 8.32288 5.44083 7.90093 5.01887C7.47897 4.59692 6.90667 4.35986 6.30994 4.35986ZM1.05994 6.31136C1.05994 3.67361 3.51319 1.35986 6.30994 1.35986C9.10669 1.35986 11.5599 3.67361 11.5599 6.31136C11.5599 8.90261 9.63769 11.9686 6.30994 17.2066C2.94319 11.9019 1.05994 8.90261 1.05994 6.31136ZM6.30994 0.609863C3.16144 0.609863 0.309937 3.16211 0.309937 6.31136C0.309937 9.45986 2.91169 13.2189 6.30994 18.6099C9.70819 13.2189 12.3099 9.45986 12.3099 6.31136C12.3099 3.16211 9.45919 0.609863 6.30994 0.609863Z" fill="#6A4DFF"/>
</g>
</g>
</g>
<defs>
<clipPath id="clip0_2_408">
<rect width="12" height="18" fill="white" transform="translate(0.309937 0.609863)"/>
</clipPath>
<clipPath id="clip1_2_408">
<rect width="12" height="18" fill="white" transform="translate(0.309937 0.609863)"/>
</clipPath>
<clipPath id="clip2_2_408">
<rect width="12" height="18" fill="white" transform="translate(0.309937 0.609863)"/>
</clipPath>
</defs>
</svg>
