<svg width="25" height="13" viewBox="0 0 25 13" fill="none" xmlns="http://www.w3.org/2000/svg">
<g clip-path="url(#clip0_2_412)">
<g clip-path="url(#clip1_2_412)">
<g clip-path="url(#clip2_2_412)">
<path d="M0.441467 0.299805H24.4385V12.9298H0.441467V0.299805Z" fill="#B22234"/>
<path d="M0.441467 1.75732H24.4385ZM24.4385 3.7004H0.441467ZM0.441467 5.64348H24.4385ZM24.4385 7.58655H0.441467ZM0.441467 9.52963H24.4385ZM24.4385 11.4727H0.441467Z" fill="black"/>
<path d="M0.441467 1.75732H24.4385M24.4385 3.7004H0.441467M0.441467 5.64348H24.4385M24.4385 7.58655H0.441467M0.441467 9.52963H24.4385M24.4385 11.4727H0.441467" stroke="white" stroke-width="0.971538"/>
<path d="M0.441467 0.299805H10.0403V7.10057H0.441467V0.299805Z" fill="#3C3B6E"/>
<path d="M1.24136 0.591309L1.46978 1.29432L0.871765 0.859835H1.61095L1.01294 1.29432L1.24136 0.591309Z" fill="white"/>
<path d="M1.24136 1.95166L1.46978 2.65467L0.871765 2.22019H1.61095L1.01294 2.65467L1.24136 1.95166Z" fill="white"/>
<path d="M1.24136 3.31152L1.46978 4.01454L0.871765 3.58005H1.61095L1.01294 4.01454L1.24136 3.31152Z" fill="white"/>
<path d="M1.24136 4.67188L1.46978 5.37489L0.871765 4.9404H1.61095L1.01294 5.37489L1.24136 4.67188Z" fill="white"/>
<path d="M1.24136 6.03174L1.46978 6.73475L0.871765 6.30027H1.61095L1.01294 6.73475L1.24136 6.03174Z" fill="white"/>
<path d="M2.04128 1.27148L2.26971 1.9745L1.67169 1.54001H2.41088L1.81286 1.9745L2.04128 1.27148Z" fill="white"/>
<path d="M2.04128 2.63184L2.26971 3.33485L1.67169 2.90036H2.41088L1.81286 3.33485L2.04128 2.63184Z" fill="white"/>
<path d="M2.04128 3.9917L2.26971 4.69471L1.67169 4.26023H2.41088L1.81286 4.69471L2.04128 3.9917Z" fill="white"/>
<path d="M2.04128 5.35205L2.26971 6.05506L1.67169 5.62058H2.41088L1.81286 6.05506L2.04128 5.35205Z" fill="white"/>
<path d="M2.84115 0.591309L3.06957 1.29432L2.47156 0.859835H3.21075L2.61273 1.29432L2.84115 0.591309Z" fill="white"/>
<path d="M2.84115 1.95166L3.06957 2.65467L2.47156 2.22019H3.21075L2.61273 2.65467L2.84115 1.95166Z" fill="white"/>
<path d="M2.84115 3.31152L3.06957 4.01454L2.47156 3.58005H3.21075L2.61273 4.01454L2.84115 3.31152Z" fill="white"/>
<path d="M2.84115 4.67188L3.06957 5.37489L2.47156 4.9404H3.21075L2.61273 5.37489L2.84115 4.67188Z" fill="white"/>
<path d="M2.84115 6.03174L3.06957 6.73475L2.47156 6.30027H3.21075L2.61273 6.73475L2.84115 6.03174Z" fill="white"/>
<path d="M3.64108 1.27148L3.8695 1.9745L3.27148 1.54001H4.01067L3.41266 1.9745L3.64108 1.27148Z" fill="white"/>
<path d="M3.64108 2.63184L3.8695 3.33485L3.27148 2.90036H4.01067L3.41266 3.33485L3.64108 2.63184Z" fill="white"/>
<path d="M3.64108 3.9917L3.8695 4.69471L3.27148 4.26023H4.01067L3.41266 4.69471L3.64108 3.9917Z" fill="white"/>
<path d="M3.64108 5.35205L3.8695 6.05506L3.27148 5.62058H4.01067L3.41266 6.05506L3.64108 5.35205Z" fill="white"/>
<path d="M4.44094 0.591309L4.66936 1.29432L4.07135 0.859835H4.81054L4.21252 1.29432L4.44094 0.591309Z" fill="white"/>
<path d="M4.44094 1.95166L4.66936 2.65467L4.07135 2.22019H4.81054L4.21252 2.65467L4.44094 1.95166Z" fill="white"/>
<path d="M4.44094 3.31152L4.66936 4.01454L4.07135 3.58005H4.81054L4.21252 4.01454L4.44094 3.31152Z" fill="white"/>
<path d="M4.44094 4.67188L4.66936 5.37489L4.07135 4.9404H4.81054L4.21252 5.37489L4.44094 4.67188Z" fill="white"/>
<path d="M4.44094 6.03174L4.66936 6.73475L4.07135 6.30027H4.81054L4.21252 6.73475L4.44094 6.03174Z" fill="white"/>
<path d="M5.24087 1.27148L5.46929 1.9745L4.87128 1.54001H5.61047L5.01245 1.9745L5.24087 1.27148Z" fill="white"/>
<path d="M5.24087 2.63184L5.46929 3.33485L4.87128 2.90036H5.61047L5.01245 3.33485L5.24087 2.63184Z" fill="white"/>
<path d="M5.24087 3.9917L5.46929 4.69471L4.87128 4.26023H5.61047L5.01245 4.69471L5.24087 3.9917Z" fill="white"/>
<path d="M5.24087 5.35205L5.46929 6.05506L4.87128 5.62058H5.61047L5.01245 6.05506L5.24087 5.35205Z" fill="white"/>
<path d="M6.04074 0.591309L6.26916 1.29432L5.67114 0.859835H6.41033L5.81231 1.29432L6.04074 0.591309Z" fill="white"/>
<path d="M6.04074 1.95166L6.26916 2.65467L5.67114 2.22019H6.41033L5.81231 2.65467L6.04074 1.95166Z" fill="white"/>
<path d="M6.04074 3.31152L6.26916 4.01454L5.67114 3.58005H6.41033L5.81231 4.01454L6.04074 3.31152Z" fill="white"/>
<path d="M6.04074 4.67188L6.26916 5.37489L5.67114 4.9404H6.41033L5.81231 5.37489L6.04074 4.67188Z" fill="white"/>
<path d="M6.04074 6.03174L6.26916 6.73475L5.67114 6.30027H6.41033L5.81231 6.73475L6.04074 6.03174Z" fill="white"/>
<path d="M6.84066 1.27148L7.06908 1.9745L6.47107 1.54001H7.21026L6.61224 1.9745L6.84066 1.27148Z" fill="white"/>
<path d="M6.84066 2.63184L7.06908 3.33485L6.47107 2.90036H7.21026L6.61224 3.33485L6.84066 2.63184Z" fill="white"/>
<path d="M6.84066 3.9917L7.06908 4.69471L6.47107 4.26023H7.21026L6.61224 4.69471L6.84066 3.9917Z" fill="white"/>
<path d="M6.84066 5.35205L7.06908 6.05506L6.47107 5.62058H7.21026L6.61224 6.05506L6.84066 5.35205Z" fill="white"/>
<path d="M7.64053 0.591309L7.86895 1.29432L7.27094 0.859835H8.01012L7.41211 1.29432L7.64053 0.591309Z" fill="white"/>
<path d="M7.64053 1.95166L7.86895 2.65467L7.27094 2.22019H8.01012L7.41211 2.65467L7.64053 1.95166Z" fill="white"/>
<path d="M7.64053 3.31152L7.86895 4.01454L7.27094 3.58005H8.01012L7.41211 4.01454L7.64053 3.31152Z" fill="white"/>
<path d="M7.64053 4.67188L7.86895 5.37489L7.27094 4.9404H8.01012L7.41211 5.37489L7.64053 4.67188Z" fill="white"/>
<path d="M7.64053 6.03174L7.86895 6.73475L7.27094 6.30027H8.01012L7.41211 6.73475L7.64053 6.03174Z" fill="white"/>
<path d="M8.44045 1.27148L8.66888 1.9745L8.07086 1.54001H8.81005L8.21203 1.9745L8.44045 1.27148Z" fill="white"/>
<path d="M8.44045 2.63184L8.66888 3.33485L8.07086 2.90036H8.81005L8.21203 3.33485L8.44045 2.63184Z" fill="white"/>
<path d="M8.44045 3.9917L8.66888 4.69471L8.07086 4.26023H8.81005L8.21203 4.69471L8.44045 3.9917Z" fill="white"/>
<path d="M8.44045 5.35205L8.66888 6.05506L8.07086 5.62058H8.81005L8.21203 6.05506L8.44045 5.35205Z" fill="white"/>
<path d="M9.24038 0.591309L9.4688 1.29432L8.87079 0.859835H9.60998L9.01196 1.29432L9.24038 0.591309Z" fill="white"/>
<path d="M9.24038 1.95166L9.4688 2.65467L8.87079 2.22019H9.60998L9.01196 2.65467L9.24038 1.95166Z" fill="white"/>
<path d="M9.24038 3.31152L9.4688 4.01454L8.87079 3.58005H9.60998L9.01196 4.01454L9.24038 3.31152Z" fill="white"/>
<path d="M9.24038 4.67188L9.4688 5.37489L8.87079 4.9404H9.60998L9.01196 5.37489L9.24038 4.67188Z" fill="white"/>
<path d="M9.24038 6.03174L9.4688 6.73475L8.87079 6.30027H9.60998L9.01196 6.73475L9.24038 6.03174Z" fill="white"/>
</g>
</g>
</g>
<defs>
<clipPath id="clip0_2_412">
<rect width="24" height="12.63" fill="white" transform="translate(0.439941 0.299805)"/>
</clipPath>
<clipPath id="clip1_2_412">
<rect width="24" height="12.63" fill="white" transform="translate(0.439941 0.299805)"/>
</clipPath>
<clipPath id="clip2_2_412">
<rect width="23.997" height="12.63" fill="white" transform="translate(0.441467 0.299805)"/>
</clipPath>
</defs>
</svg>
