<svg width="25" height="17" viewBox="0 0 25 17" fill="none" xmlns="http://www.w3.org/2000/svg">
<g clip-path="url(#clip0_2_508)">
<g clip-path="url(#clip1_2_508)">
<g clip-path="url(#clip2_2_508)">
<path d="M0.439941 0.609863H24.4399V16.6099H0.439941V0.609863Z" fill="white"/>
<path d="M6.43994 0.609863H24.4399V16.6099H6.43994V0.609863Z" fill="#01411C"/>
<path d="M15.44 13.4101C18.0909 13.4101 20.24 11.261 20.24 8.61006C20.24 5.95909 18.0909 3.81006 15.44 3.81006C12.789 3.81006 10.64 5.95909 10.64 8.61006C10.64 11.261 12.789 13.4101 15.44 13.4101Z" fill="white"/>
<path d="M16.667 11.9191C19.097 11.9191 21.067 9.94919 21.067 7.51914C21.067 5.08909 19.097 3.11914 16.667 3.11914C14.2369 3.11914 12.267 5.08909 12.267 7.51914C12.267 9.94919 14.2369 11.9191 16.667 11.9191Z" fill="#01411C"/>
<path d="M17.1901 5.01807L19.2121 7.29267L16.2399 6.64107L19.0279 5.42107L17.4889 8.04687L17.1901 5.01807Z" fill="white"/>
</g>
</g>
</g>
<defs>
<clipPath id="clip0_2_508">
<rect width="24" height="16" fill="white" transform="translate(0.439941 0.609863)"/>
</clipPath>
<clipPath id="clip1_2_508">
<rect width="24" height="16" fill="white" transform="translate(0.439941 0.609863)"/>
</clipPath>
<clipPath id="clip2_2_508">
<rect width="24" height="16" fill="white" transform="translate(0.439941 0.609863)"/>
</clipPath>
</defs>
</svg>
