<svg width="83" height="40" viewBox="0 0 83 40" fill="none" xmlns="http://www.w3.org/2000/svg">
<g clip-path="url(#clip0_2_354)">
<path d="M79.262 4.82176C71.3543 0.873191 61.0353 1.11891 52.8067 3.89795C44.9277 6.55986 35.5343 12.8351 35.541 22.1903C35.541 25.5999 37.5696 28.977 41.3772 28.336C44.9143 27.7427 46.8115 24.3103 46.0648 20.9122C44.0496 11.7332 31.0077 12.3332 24.2362 14.7446C19.9319 16.2793 16.0494 18.8059 12.9029 22.1199C9.99814 25.1884 7.12195 29.3456 6.61718 33.638C6.54575 34.257 7.54099 34.5084 7.79814 33.9541C9.15909 30.9932 10.221 28.076 12.2096 25.4446C14.2743 22.7122 16.8953 20.397 19.8115 18.6246C25.5991 15.1065 34.1258 13.0113 40.4781 16.2465C43.8429 17.9627 47.0629 23.6503 42.7267 26.2941C40.9696 27.3646 38.6667 27.156 37.6219 25.2341C36.6696 23.4789 36.8715 21.137 37.3505 19.2789C39.301 11.7065 47.2715 6.95033 54.2134 4.75319C58.1448 3.51341 62.2543 2.93318 66.3753 3.03605C70.7762 3.14367 74.801 4.24081 78.9696 5.52652C79.3753 5.65319 79.6543 5.01605 79.262 4.82176Z" fill="#6A4DFF"/>
<path d="M81.4629 5.81617C73.9514 -0.516211 63.2705 -1.46573 54.2695 2.05046C49.9381 3.74284 45.9933 6.30474 42.5219 9.39712C38.981 12.5543 35.2019 16.5019 33.6743 21.1019C32.6057 24.3114 32.8867 30.0476 37.2857 30.4695C41.1572 30.8428 45.6172 27.3209 46.5724 23.6438C47.6419 19.5286 44.6057 15.7152 40.9905 14.2057C36.6733 12.4057 31.4343 13.0105 27.0191 14.179C17.3543 16.7371 8.9343 23.7047 4.78954 32.8562C4.39525 33.7295 5.67049 34.499 6.08287 33.6152C9.14954 27.0019 14.3391 21.6095 20.781 18.2362C24.0638 16.5171 27.661 15.3514 31.3333 14.8771C35.54 14.3362 40.6667 14.3857 43.6924 17.8295C47.0333 21.6295 44.7457 26.3114 40.6486 28.299C38.2581 29.459 35.68 29.4419 34.7381 26.5085C33.9724 24.1295 34.8133 21.4486 35.9619 19.3343C39.6467 12.5638 46.7581 6.7495 53.7505 3.72569C62.5133 -0.0638301 73.1905 0.319027 80.7619 6.5095C81.2476 6.91331 81.9505 6.2276 81.4629 5.81617Z" fill="#6A4DFF"/>
<path d="M14.1601 28.8925C12.3343 29.7011 10.6096 30.7906 8.86481 31.7591C8.04005 32.2163 7.21243 32.6734 6.38672 33.1353C6.00577 33.3477 4.13719 34.6915 3.75243 34.4839C3.55243 34.3782 3.73338 31.9887 3.73338 31.6744L3.71243 28.8649C3.69815 27.0382 4.04196 24.8087 3.40767 23.0791C3.18196 22.4601 2.35339 22.4439 2.13719 23.0839C1.73434 24.2696 1.90767 25.5306 1.92577 26.7725C1.94481 28.1763 1.96767 29.582 1.98767 30.9849C2.00862 32.2839 1.42862 35.3125 2.83529 36.1353C4.17815 36.922 6.33624 34.8572 7.41624 34.2239C9.84196 32.8049 12.4315 31.5115 14.7172 29.8782C14.8411 29.8009 14.9304 29.6787 14.9664 29.5372C15.0025 29.3957 14.9825 29.2457 14.9106 29.1186C14.8387 28.9914 14.7206 28.8969 14.5807 28.8548C14.4409 28.8127 14.2902 28.8262 14.1601 28.8925Z" fill="#6A4DFF"/>
<path d="M13.7705 28.5181C12.0114 29.7495 10.5486 31.4876 8.94189 32.9162C7.07522 34.5724 5.14665 36.1857 3.06189 37.5572L4.34665 38.2953C4.27441 35.9645 4.31414 33.6317 4.4657 31.3048C4.61617 29.0429 5.33141 26.6095 5.13808 24.3648C5.08094 23.7114 4.08665 23.2581 3.75522 23.9933C2.87141 25.9553 2.85998 28.5343 2.70189 30.6553C2.52073 33.2025 2.49783 35.7585 2.63332 38.3086C2.67332 39.08 3.5276 39.3886 4.09046 38.9133C5.96856 37.3276 7.88379 35.8048 9.69046 34.1324C11.3143 32.6295 13.2171 31.0286 14.3695 29.1248C14.5828 28.7629 14.1381 28.261 13.7705 28.5181Z" fill="#6A4DFF"/>
<path d="M14.4743 26.802C10.3981 30.5734 6.34191 34.3686 2.22667 38.0953L3.68476 38.6991C3.36857 36.1058 3.07334 33.5153 2.94476 30.9048C2.82762 28.4991 3.15429 25.9143 2.68476 23.5572C2.53714 22.8124 1.43048 22.8762 1.25048 23.5629C0.612383 25.9677 0.988574 28.801 1.14095 31.2572C1.29905 33.8267 1.56286 36.3943 2 38.9296C2.11238 39.5829 3.00381 39.7391 3.42762 39.3124C7.35048 35.3848 11.3343 31.522 15.301 27.6381C15.8495 27.1067 15.0295 26.2839 14.4724 26.802H14.4743Z" fill="#6A4DFF"/>
</g>
<defs>
<clipPath id="clip0_2_354">
<rect width="82" height="40" fill="white" transform="translate(0.160034)"/>
</clipPath>
</defs>
</svg>
